<?xml version="1.0" encoding="UTF-8"?>
<!DOCTYPE svg PUBLIC "-//W3C//DTD SVG 1.1//EN" "http://www.w3.org/Graphics/SVG/1.1/DTD/svg11.dtd">
<!-- Creator: CorelDRAW 2021 (64-Bit Evaluation Version) -->
<svg xmlns="http://www.w3.org/2000/svg" xml:space="preserve" width="210mm" height="297mm" version="1.1" style="shape-rendering:geometricPrecision; text-rendering:geometricPrecision; image-rendering:optimizeQuality; fill-rule:evenodd; clip-rule:evenodd"
viewBox="0 0 21000 29700"
 xmlns:xlink="http://www.w3.org/1999/xlink"
 xmlns:xodm="http://www.corel.com/coreldraw/odm/2003">
 <defs>
  <style type="text/css">
   <![CDATA[
    .fil5 {fill:#FEFEFE}
    .fil3 {fill:#FFF239}
    .fil4 {fill:#70452E}
    .fil0 {fill:#08AFE6}
    .fil2 {fill:#00A859}
    .fil1 {fill:#224F8F}
   ]]>
  </style>
 </defs>
 <g id="Layer_x0020_1">
  <metadata id="CorelCorpID_0Corel-Layer"/>
  <g id="_2711045143200">
   <path class="fil0" d="M13666.19 18980.18c125.51,-365.2 174.19,-783.94 112.42,-1276.81 -34,-265.19 -115.43,-489.44 -158.36,-640.5 -46.81,-164.83 -138.4,-369.85 -244.4,-607.31 -364.35,-816.01 -859.8,-1925.64 -99.49,-2629.85 57.23,-53.01 64.31,-139.46 14.22,-198.94l-847.62 -1006.53c-10.3,-12.26 -25.65,-19.33 -41.84,-19.33l-2401.92 0.48 -2401.96 -0.48c-16.16,0 -31.5,7.08 -41.81,19.33l-847.65 1006.53c-50.09,59.48 -42.97,145.94 14.25,198.94 760.28,704.21 264.83,1813.85 -99.48,2629.85 -106.04,237.45 -197.59,442.49 -244.44,607.31 -42.9,151.06 -124.32,375.32 -158.36,640.5 -61.77,492.86 -13.09,911.62 112.46,1276.81l7333.98 0z"/>
   <path class="fil1" d="M6157.55 17225.39c49.96,-178.86 146.23,-398.11 257.74,-652.03 383.16,-872.76 907.95,-2068 52.21,-2783.44 -47.9,-40.04 -54.47,-111.73 -14.64,-159.8l914.72 -1161.61c21.77,-26.27 53.8,-41.3 87.88,-41.3l2520.77 0.54 2520.71 -0.54c34.08,0 66.07,15.04 87.84,41.25l973.49 1161.64c39.8,48.09 33.26,119.82 -14.64,159.83 -855.63,715.39 -330.91,1910.6 52.28,2783.43 111.45,253.74 207.64,472.89 257.7,652 145.71,521.36 374.02,1844.29 -649.46,2866.53 -704.39,703.4 -1667.34,921.6 -2184.72,1038.82 -120.68,27.27 -224.97,50.88 -288.78,72.64 -306.77,104.81 -620.33,511.46 -633.59,528.78 -19.93,26.17 -50.1,42.47 -80.33,44.7l-0.95 -0.11 -3.1 0.28c-37.58,3.04 -75.4,-14.28 -98.68,-44.94 -3.14,-4.24 -322.44,-422.42 -633.48,-528.71 -62.94,-21.45 -167.08,-45.08 -288.82,-72.71 -517.28,-117.16 -1480.19,-335.21 -2184.68,-1038.75 -1023.52,-1022.22 -795.16,-2345.16 -649.47,-2866.5zm2792.14 4090.53c115.6,26.25 215.51,48.83 269.27,67.21 194.56,66.43 450.18,341.13 543.45,463.65 57.15,75.39 147.82,120.44 242.54,120.44 6.74,0 13.44,-0.25 20.21,-0.63l5.12 -0.39c86.36,-6.81 165.73,-50.1 218.22,-119.1 93.38,-122.73 349.18,-397.58 543.74,-463.97 53.7,-18.39 158.01,-41.98 269.42,-67.17 535.98,-121.43 1533.7,-347.45 2277,-1089.77 1094.39,-1093.05 852.84,-2498.4 698.22,-3051.91 -53.69,-191.95 -152.4,-416.77 -266.81,-677.3 -358.94,-817.62 -850.54,-1937.39 -104.35,-2561.33 127.82,-106.88 145.38,-298.23 39.16,-426.61l-973.56 -1161.64c-57.99,-70.02 -143.44,-110.17 -234.49,-110.17l-2520.6 0.53 -2520.77 -0.54c-90.98,0 -176.43,40.15 -234.46,110.18l-914.71 1161.64c-106.26,128.36 -88.69,319.69 39.12,426.55 746.3,623.96 254.63,1743.83 -104.39,2561.53 -114.33,260.38 -213.08,485.24 -266.74,677.19 -154.65,553.47 -396.2,1958.84 698.22,3051.88 743.34,742.39 1741.1,968.38 2277.19,1089.73z"/>
   <path class="fil1" d="M8630 13582.9c-9.32,18.84 -21.91,34.59 -37.79,47.17 -15.87,12.57 -34.36,21.99 -55.49,28.3 -21.09,6.26 -43.46,9.44 -67.06,9.44l-70.31 -0.01 0 -301.85 83.65 0c33.3,0 60.42,5.42 81.34,16.28 20.89,10.88 37.26,24.11 49.08,39.73 11.82,15.62 19.82,32.13 24.09,49.48 4.27,17.32 6.42,32.47 6.42,45.42 0,25.16 -4.66,47.16 -13.93,66.04zm55.77 -151.8c-6.24,-14.84 -14.64,-29.32 -25.29,-43.45 -10.66,-14.07 -24.03,-26.56 -40.08,-37.43 -16.08,-10.88 -35.07,-19.52 -56.94,-26.01 -21.87,-6.48 -47.38,-9.73 -76.41,-9.73l-143.47 -0.01 0 404.76 134.19 0c36.8,0 69.22,-5.71 97.3,-17.14 28.08,-11.43 51.61,-26.58 70.59,-45.46 18.98,-18.85 33.3,-40.38 43,-64.58 9.67,-24.2 14.5,-49.25 14.5,-75.19 0,-12.56 -1.34,-26.29 -4.06,-41.17 -2.71,-14.85 -7.19,-29.71 -13.33,-44.59z"/>
   <polygon class="fil1" points="8862.34,13538.01 9057.53,13538.01 9057.53,13486.56 8862.34,13486.56 8862.34,13365.95 9072.03,13365.95 9072.03,13314.47 8806.56,13314.47 8806.56,13719.23 9082.51,13719.23 9082.51,13667.8 8862.34,13667.8 "/>
   <path class="fil1" d="M9557.42 13513.7c-14.93,-8.18 -31.19,-14.55 -48.8,-19.13 -17.64,-4.58 -33.9,-9.71 -48.82,-15.44 -14.89,-5.72 -27.38,-13.14 -37.46,-22.29 -10.06,-9.15 -15.1,-22.3 -15.1,-39.46 0,-6.08 1.23,-12.75 3.81,-20 2.47,-7.24 6.84,-14 13.05,-20.3 6.21,-6.28 14.43,-11.43 24.69,-15.42 10.24,-4 23.14,-6.01 38.63,-6.01 16.27,0 30.8,3.25 43.57,9.73 12.77,6.47 22.65,15.04 29.6,25.71l45.33 -40.59c-15.48,-18.67 -33.51,-31.06 -54.01,-37.16 -20.56,-6.08 -42.05,-9.15 -64.49,-9.15 -24.8,0 -46,3.72 -63.64,11.17 -17.6,7.42 -32.03,16.67 -43.25,27.71 -11.22,11.06 -19.47,23.26 -24.69,36.59 -5.22,13.34 -7.84,25.92 -7.84,37.72 0.01,26.3 5.05,47.18 15.1,62.6 10.06,15.45 22.55,27.73 37.47,36.88 14.92,9.15 31.18,16.3 48.79,21.44 17.64,5.14 33.9,10.5 48.79,16.02 14.92,5.51 27.41,12.37 37.46,20.57 10.09,8.2 15.14,20.12 15.14,35.73 0,11.05 -2.54,20.79 -7.59,29.16 -5.01,8.38 -11.5,15.44 -19.44,21.14 -7.93,5.73 -16.75,10.02 -26.42,12.88 -9.7,2.86 -19.19,4.29 -28.47,4.29 -16.65,0 -32.81,-3.53 -48.54,-10.59 -15.66,-7.03 -28.54,-18.02 -38.6,-32.87l-45.89 38.87c13.94,19.07 32.7,33.17 56.34,42.31 23.64,9.13 48.61,13.72 74.96,13.72 19.72,-0.01 38.31,-2.85 55.74,-8.57 17.43,-5.72 32.53,-13.9 45.33,-24.58 12.78,-10.68 22.93,-23.82 30.48,-39.46 7.55,-15.63 11.33,-33.16 11.33,-52.59 0,-24.39 -5.01,-43.53 -15.07,-57.45 -10.12,-13.92 -22.61,-24.96 -37.49,-33.18z"/>
   <polygon class="fil1" points="9771.48,13538.01 9966.67,13538.01 9966.67,13486.56 9771.48,13486.56 9771.48,13365.95 9981.2,13365.95 9981.2,13314.47 9715.71,13314.47 9715.71,13719.23 9991.65,13719.23 9991.65,13667.8 9771.48,13667.8 "/>
   <path class="fil1" d="M11896.47 13492.86l-73.2 0 0 -130.35 73.2 0c10.84,0 21.59,0.87 32.25,2.57 10.66,1.71 20.1,4.84 28.43,9.43 8.36,4.57 15.03,11.16 20.04,19.72 5.05,8.58 7.58,19.74 7.58,33.44 0.01,13.72 -2.54,24.89 -7.58,33.46 -5.01,8.56 -11.68,15.15 -20.04,19.71 -8.32,4.57 -17.78,7.73 -28.43,9.44 -10.66,1.72 -21.42,2.58 -32.25,2.58zm88.59 29.43c12.59,-6.66 23.24,-14.85 31.96,-24.57 8.72,-9.74 15.38,-20.6 20.03,-32.59 4.66,-12.02 6.95,-24.5 6.95,-37.46 0,-12.56 -1.94,-25.62 -5.82,-39.14 -3.84,-13.55 -10.72,-25.74 -20.6,-36.6 -9.87,-10.86 -23.35,-19.81 -40.39,-26.86 -17.04,-7.05 -38.7,-10.59 -65.06,-10.59l-144.63 -0.01 0 404.76 55.77 0 0 -178.36 62.16 0 104.57 178.36 69.74 0 -116.8 -184.65c15.49,-1.51 29.52,-5.63 42.12,-12.29z"/>
   <path class="fil1" d="M12478.56 13579.47c-7.34,19.62 -17.82,36.69 -31.4,51.16 -13.55,14.47 -29.81,26 -48.79,34.59 -18.98,8.57 -40.25,12.87 -63.89,12.87 -23.63,0 -44.94,-4.29 -63.92,-12.87 -18.98,-8.59 -35.25,-20.12 -48.79,-34.59 -13.54,-14.47 -23.99,-31.54 -31.36,-51.16 -7.37,-19.64 -11.05,-40.51 -11.05,-62.61 0.01,-22.09 3.67,-42.96 11.05,-62.6 7.37,-19.63 17.81,-36.67 31.36,-51.16 13.55,-14.47 29.81,-26.02 48.79,-34.59 18.98,-8.58 40.28,-12.86 63.92,-12.86 23.64,0 44.91,4.28 63.89,12.86 18.98,8.56 35.24,20.12 48.79,34.59 13.58,14.48 24.06,31.54 31.39,51.16 7.38,19.64 11.05,40.52 11.05,62.6 0,22.09 -3.67,42.98 -11.04,62.61zm54.32 -146.66c-10.68,-25.89 -25.4,-48.38 -44.17,-67.43 -18.76,-19.06 -41.34,-34.02 -67.66,-44.89 -26.35,-10.86 -55.21,-16.3 -86.57,-16.3 -31.36,0 -60.22,5.45 -86.54,16.3 -26.35,10.87 -48.89,25.84 -67.7,44.89 -18.79,19.05 -33.51,41.55 -44.13,67.44 -10.65,25.91 -15.98,53.95 -15.98,84.04 0,30.12 5.33,58.13 15.98,84.04 10.62,25.92 25.33,48.41 44.13,67.46 18.81,19.06 41.35,34.02 67.7,44.89 26.33,10.85 55.18,16.28 86.54,16.28 31.37,-0.01 60.22,-5.43 86.57,-16.28 26.33,-10.87 48.9,-25.83 67.66,-44.89 18.77,-19.06 33.48,-41.53 44.17,-67.46 10.66,-25.91 15.95,-53.91 15.95,-84.04 0.01,-30.1 -5.29,-58.12 -15.95,-84.05z"/>
   <path class="fil1" d="M11595.55 13637.49c-6.17,8.78 -13.76,15.73 -22.65,20.88 -8.92,5.12 -18.52,8.56 -28.78,10.28 -10.23,1.7 -19.62,2.57 -28.15,2.57l-81.91 -0.01 0 -140.63 82.51 0c27.09,0 48.57,6.02 64.45,18.01 15.91,12 23.81,30.02 23.81,54.03 0,14.49 -3.1,26.1 -9.28,34.87zm-161.49 -274.98l87.73 0c22.44,0 38.91,5.92 49.38,17.73 10.45,11.8 15.67,25.72 15.67,41.72 0,11.06 -2.01,20.4 -6.07,28.01 -4.09,7.64 -9.6,13.92 -16.58,18.88 -6.94,4.95 -15.1,8.49 -24.41,10.58 -9.27,2.1 -19.16,3.13 -29.6,3.13l-76.12 0 0 -120.05zm204.18 174.66c-7.94,-8.96 -17.32,-16.21 -28.15,-21.74 -10.87,-5.5 -22.48,-8.67 -34.86,-9.44l0 -1.13c20.93,-6.86 37.93,-17.61 51.12,-32.31 13.2,-14.66 19.75,-33.62 19.75,-56.87 0.01,-17.16 -3.21,-32.1 -9.59,-44.88 -6.38,-12.76 -15.1,-23.25 -26.14,-31.45 -11.04,-8.19 -24.2,-14.38 -39.51,-18.57 -15.27,-4.21 -31.82,-6.3 -49.67,-6.3l-142.91 -0.01 0 404.76 141.18 0c20.14,0 38.94,-2.47 56.37,-7.43 17.43,-4.95 32.7,-12.18 45.9,-21.72 13.16,-9.53 23.53,-21.24 31.08,-35.16 7.51,-13.9 11.29,-29.99 11.29,-48.32 0,-13.69 -2.33,-26.45 -6.95,-38.29 -4.65,-11.81 -10.94,-22.2 -18.91,-31.14z"/>
   <polygon class="fil1" points="11040.78,13620.9 11038.45,13620.9 10907.71,13314.47 10824.66,13314.47 10824.66,13719.23 10880.44,13719.23 10880.44,13386.51 10881.61,13386.51 11020.46,13719.23 11057.61,13719.23 11196.46,13386.51 11197.63,13386.51 11197.63,13719.23 11253.36,13719.23 11253.36,13314.47 11170.32,13314.47 "/>
   <polygon class="fil1" points="10047.42,13365.95 10179.86,13365.95 10179.86,13719.23 10235.63,13719.23 10235.63,13365.95 10368.1,13365.95 10368.1,13314.47 10047.42,13314.47 "/>
   <polygon class="fil1" points="10506.32,13538.01 10701.54,13538.01 10701.54,13486.56 10506.32,13486.56 10506.32,13365.95 10716.05,13365.95 10716.05,13314.47 10450.55,13314.47 10450.55,13719.23 10726.53,13719.23 10726.53,13667.8 10506.32,13667.8 "/>
   <path class="fil1" d="M8013.91 13564.33c-1.73,18.28 -5.54,35.9 -11.33,52.87 -5.78,16.94 -14.43,31.37 -25.86,43.17 -11.43,11.78 -26.81,17.72 -46.18,17.72 -19.36,0 -34.75,-5.93 -46.18,-17.72 -11.42,-11.81 -20.03,-26.22 -25.85,-43.17 -5.83,-16.97 -9.6,-34.59 -11.33,-52.87 -1.72,-18.31 -2.61,-34.12 -2.61,-47.47 0,-9.15 0.32,-19.52 0.88,-31.16 0.57,-11.62 1.91,-23.43 4.06,-35.45 2.12,-11.99 5.12,-23.62 9,-34.87 3.88,-11.23 8.99,-21.32 15.41,-30.3 6.39,-8.92 14.22,-16.08 23.5,-21.42 9.31,-5.33 20.35,-8.01 33.12,-8.01 12.78,0 23.82,2.68 33.13,8.01 9.28,5.33 17.14,12.5 23.49,21.42 6.43,8.97 11.54,19.07 15.42,30.3 3.88,11.25 6.88,22.88 9,34.87 2.15,12.02 3.49,23.84 4.05,35.45 0.61,11.64 0.88,22.01 0.88,31.16 0,13.34 -0.88,29.16 -2.6,47.47zm47.62 -140.92c-4.05,-15.46 -9.49,-30.21 -16.26,-44.32 -6.77,-14.12 -15.49,-26.39 -26.11,-36.88 -10.69,-10.48 -23.25,-18.85 -37.78,-25.15 -14.53,-6.29 -31.47,-9.44 -50.84,-9.44 -19.36,-0.01 -36.3,3.15 -50.83,9.44 -14.5,6.3 -27.1,14.68 -37.75,25.15 -10.65,10.49 -19.37,22.77 -26.14,36.88 -6.77,14.1 -12.21,28.87 -16.26,44.32 -4.09,15.41 -6.88,31.15 -8.43,47.15 -1.55,16 -2.33,31.45 -2.33,46.3 0,21.36 1.94,44.22 5.82,68.61 3.88,24.38 11.04,47.06 21.48,68.02 10.45,20.97 24.87,38.31 43.29,52.04 18.38,13.7 42.12,20.58 71.15,20.58 29.07,0 52.78,-6.87 71.16,-20.58 18.38,-13.73 32.84,-31.07 43.28,-52.04 10.48,-20.96 17.61,-43.63 21.49,-68.02 3.88,-24.4 5.82,-47.25 5.82,-68.61 0,-14.86 -0.78,-30.3 -2.33,-46.3 -1.51,-16.01 -4.37,-31.73 -8.43,-47.15z"/>
   <path class="fil1" d="M7698.17 13542.59c-6.95,-9.14 -15.49,-16.77 -25.54,-22.87 -10.09,-6.09 -21.52,-10.29 -34.29,-12.56l0 -1.18c20.92,-6.08 37.85,-17.51 50.83,-34.27 12.99,-16.79 19.48,-35.83 19.48,-57.19 0,-18.66 -3.39,-34.95 -10.16,-48.87 -6.81,-13.9 -15.98,-25.44 -27.63,-34.58 -11.6,-9.16 -25.04,-15.9 -40.35,-20.3 -15.32,-4.38 -31.3,-6.58 -47.95,-6.58 -27.48,0 -52.35,6.2 -74.64,18.59 -22.26,12.38 -38.85,31.54 -49.64,57.46l56.9 18.86c6.21,-14.1 15.38,-25.44 27.59,-34.02 12.21,-8.58 25.86,-12.86 40.99,-12.86 19.73,-0.01 36.2,5.53 49.36,16.59 13.16,11.04 19.75,27.43 19.75,49.16 0,9.9 -1.55,18.86 -4.65,26.87 -3.11,7.98 -8.51,14.66 -16.27,20 -7.76,5.33 -18.38,9.44 -31.96,12.28 -13.54,2.86 -30.97,4.31 -52.25,4.31l0.01 48c13.12,0 26.49,0.78 40.07,2.31 13.55,1.51 25.93,4.86 37.18,9.99 11.22,5.15 20.39,12.77 27.59,22.88 7.16,10.1 10.72,23.53 10.72,40.31 0.01,11.06 -2.11,21.05 -6.38,30 -4.23,8.96 -9.99,16.57 -17.36,22.88 -7.3,6.26 -15.7,11.23 -25.15,14.86 -9.45,3.61 -19.58,5.43 -30.37,5.43 -21.63,0 -37.93,-4.76 -48.9,-14.3 -11,-9.52 -19.79,-24.01 -26.35,-43.44l-59.23 17.72c9.28,30.49 25.82,52.77 49.63,66.87 23.85,14.11 51.44,21.17 82.8,21.17 18.2,0 35.52,-2.49 52,-7.44 16.44,-4.96 30.97,-12.28 43.53,-22.01 12.63,-9.72 22.68,-21.91 30.23,-36.59 7.56,-14.68 11.33,-31.73 11.33,-51.17 0,-12.59 -1.73,-24.48 -5.22,-35.73 -3.49,-11.24 -8.72,-21.43 -15.7,-30.58z"/>
   <path class="fil1" d="M9776 14240.48c-12.14,11.63 -27.91,17.45 -47.35,17.45 -8.74,0 -17.07,-1.43 -25.01,-4.3 -7.94,-2.88 -14.89,-6.94 -20.88,-12.2 -6,-5.26 -10.76,-11.78 -14.33,-19.58 -3.56,-7.83 -5.36,-16.66 -5.36,-26.55 0,-18.17 6.17,-33.05 18.49,-44.66 12.27,-11.67 28.01,-17.63 47.09,-17.95 9.07,-0.01 17.57,1.36 25.51,4.08 7.94,2.68 14.88,6.68 20.88,11.94 5.97,5.23 10.69,11.78 14.08,19.58 3.42,7.8 5.11,16.82 5.11,27.01 0.01,18.46 -6.06,33.54 -18.23,45.18zm-97.62 -181.87c-2.43,-6.37 -3.63,-12.91 -3.63,-19.59 0,-15.94 5.25,-28.86 15.77,-38.75 10.55,-9.85 23.24,-14.79 38.13,-14.79 16.2,0 29.21,5.01 39.09,15.05 9.91,10.04 14.82,22.88 14.82,38.49 0,6.98 -1.13,13.69 -3.39,20.05 -2.26,6.39 -5.68,12.05 -10.2,16.98 -4.54,4.93 -10.12,8.92 -16.75,11.95 -6.63,3.04 -14.5,4.55 -23.57,4.55 -8.74,-0.01 -16.44,-1.6 -23.07,-4.79 -6.63,-3.2 -12.21,-7.23 -16.76,-12.19 -4.55,-4.95 -8,-10.6 -10.44,-16.96zm143.55 83.41c-5.82,-7.18 -12.7,-13.24 -20.64,-18.17 -7.94,-4.93 -16.62,-8.68 -26,-11.23l0 -1.45c6.46,-1.59 12.95,-4.44 19.44,-8.61 6.45,-4.12 12.2,-9.39 17.21,-15.75 5.01,-6.37 9.17,-14.12 12.39,-23.18 3.24,-9.1 4.86,-19.52 4.86,-31.32 0.01,-12.73 -2.68,-24.29 -8,-34.64 -5.36,-10.37 -12.6,-19.2 -21.88,-26.54 -9.2,-7.31 -19.89,-12.97 -32.03,-16.95 -12.13,-4 -25.01,-5.98 -38.63,-5.98 -13.58,0 -26.46,1.98 -38.59,5.98 -12.17,3.97 -22.83,9.65 -32.07,16.95 -9.24,7.33 -16.51,16.17 -21.84,26.54 -5.36,10.35 -8.04,21.92 -8.04,34.64 0,11.8 1.62,22.23 4.87,31.32 3.21,9.05 7.37,16.81 12.38,23.18 5.01,6.36 10.76,11.63 17.25,15.75 6.5,4.16 12.95,7.03 19.44,8.61l0 1.45c-9.38,2.55 -18.06,6.3 -26,11.23 -7.94,4.92 -14.82,10.99 -20.64,18.17 -5.82,7.17 -10.44,15.21 -13.86,24.14 -3.39,8.89 -5.08,18.64 -5.08,29.14 0,15.95 2.89,30.28 8.75,43.03 5.82,12.75 13.76,23.58 23.77,32.49 10.03,8.92 21.95,15.71 35.71,20.31 13.76,4.62 28.43,6.94 43.95,6.94 15.53,0 30.2,-2.31 43.99,-6.94 13.76,-4.6 25.65,-11.39 35.67,-20.31 10.06,-8.91 17.99,-19.74 23.81,-32.49 5.82,-12.75 8.71,-27.08 8.71,-43.03 0.01,-10.51 -1.69,-20.24 -5.07,-29.14 -3.39,-8.94 -8.01,-16.97 -13.83,-24.14z"/>
   <polygon class="fil1" points="9111.82,14031.82 9139.02,14063.87 9202.17,14006.51 9202.17,14292.33 9248.81,14292.33 9248.81,13953.92 9207.5,13953.92 "/>
   <path class="fil1" d="M10298.64 14240.48c-12.14,11.63 -27.91,17.45 -47.38,17.45 -8.75,0 -17.04,-1.43 -25.02,-4.3 -7.93,-2.88 -14.88,-6.94 -20.88,-12.2 -5.99,-5.26 -10.72,-11.78 -14.32,-19.58 -3.56,-7.83 -5.33,-16.66 -5.33,-26.55 0,-18.17 6.14,-33.05 18.45,-44.66 12.32,-11.67 28.01,-17.63 47.1,-17.95 9.1,-0.01 17.57,1.36 25.54,4.08 7.9,2.68 14.88,6.68 20.85,11.94 5.96,5.23 10.69,11.78 14.07,19.58 3.46,7.8 5.12,16.82 5.12,27.01 0,18.46 -6.03,33.54 -18.2,45.18zm-97.65 -181.87c-2.4,-6.37 -3.6,-12.91 -3.6,-19.59 0,-15.94 5.22,-28.86 15.77,-38.75 10.51,-9.85 23.21,-14.79 38.1,-14.79 16.19,0 29.21,5.01 39.08,15.05 9.92,10.04 14.82,22.88 14.82,38.49 0,6.98 -1.13,13.69 -3.35,20.05 -2.29,6.39 -5.68,12.05 -10.2,16.98 -4.54,4.93 -10.15,8.92 -16.79,11.95 -6.63,3.04 -14.46,4.55 -23.56,4.55 -8.75,-0.01 -16.44,-1.6 -23.04,-4.79 -6.66,-3.2 -12.24,-7.23 -16.79,-12.19 -4.55,-4.95 -7.97,-10.6 -10.44,-16.96zm143.54 83.41c-5.82,-7.18 -12.7,-13.24 -20.64,-18.17 -7.93,-4.93 -16.61,-8.68 -26,-11.23l0.01 -1.45c6.49,-1.59 12.94,-4.44 19.43,-8.61 6.5,-4.12 12.24,-9.39 17.22,-15.75 5.04,-6.37 9.17,-14.12 12.42,-23.18 3.24,-9.1 4.86,-19.52 4.86,-31.32 0.01,-12.73 -2.71,-24.29 -8.04,-34.64 -5.32,-10.37 -12.59,-19.2 -21.84,-26.54 -9.24,-7.31 -19.93,-12.97 -32.06,-16.95 -12.14,-4 -25.02,-5.98 -38.63,-5.98 -13.58,0 -26.46,1.98 -38.6,5.98 -12.13,3.97 -22.82,9.65 -32.06,16.95 -9.25,7.33 -16.52,16.17 -21.84,26.54 -5.33,10.35 -8.05,21.92 -8.05,34.64 0.01,11.8 1.63,22.23 4.87,31.32 3.25,9.05 7.38,16.81 12.42,23.18 4.97,6.36 10.73,11.63 17.22,15.75 6.49,4.16 12.94,7.03 19.43,8.61l0.01 1.45c-9.39,2.55 -18.07,6.3 -26,11.23 -7.94,4.92 -14.82,10.99 -20.64,18.17 -5.86,7.17 -10.41,15.21 -13.83,24.14 -3.42,8.89 -5.12,18.64 -5.12,29.14 0.01,15.95 2.9,30.28 8.75,43.03 5.83,12.75 13.76,23.58 23.78,32.49 10.02,8.92 21.94,15.71 35.74,20.31 13.76,4.62 28.39,6.94 43.92,6.94 15.52,0 30.2,-2.31 43.99,-6.94 13.76,-4.6 25.64,-11.39 35.66,-20.31 10.06,-8.91 18,-19.74 23.85,-32.49 5.79,-12.75 8.71,-27.08 8.71,-43.03 0,-10.51 -1.69,-20.24 -5.11,-29.14 -3.38,-8.94 -7.97,-16.97 -13.83,-24.14z"/>
   <path class="fil1" d="M10882.2 14170.21c-2.93,-9.39 -7.3,-17.92 -13.12,-25.59 -5.82,-7.63 -12.95,-13.98 -21.38,-19.1 -8.43,-5.09 -17.96,-8.61 -28.65,-10.51l0.01 -0.97c17.49,-5.08 31.64,-14.63 42.5,-28.65 10.84,-14.05 16.27,-29.98 16.27,-47.81 0,-15.62 -2.83,-29.24 -8.47,-40.89 -5.71,-11.63 -13.37,-21.25 -23.11,-28.88 -9.7,-7.67 -20.95,-13.32 -33.76,-16.99 -12.77,-3.66 -26.14,-5.48 -40.07,-5.48 -23,0 -43.78,5.15 -62.38,15.52 -18.62,10.35 -32.49,26.36 -41.55,48.03l47.63 15.77c5.15,-11.8 12.83,-21.25 23.03,-28.43 10.2,-7.17 21.59,-10.75 34.29,-10.75 16.48,0 30.23,4.61 41.27,13.85 10.98,9.25 16.48,22.96 16.48,41.12 0,8.28 -1.31,15.76 -3.88,22.46 -2.58,6.67 -7.13,12.26 -13.62,16.72 -6.45,4.44 -15.35,7.89 -26.67,10.28 -11.35,2.38 -25.93,3.59 -43.74,3.59l0 40.15c11.01,0 22.19,0.64 33.51,1.92 11.36,1.25 21.69,4.04 31.08,8.35 9.39,4.31 17.11,10.7 23.11,19.14 6,8.41 8.99,19.67 8.99,33.67 0,9.26 -1.8,17.62 -5.36,25.12 -3.53,7.47 -8.36,13.84 -14.5,19.1 -6.13,5.24 -13.16,9.41 -21.06,12.42 -7.89,3.02 -16.37,4.56 -25.4,4.56 -18.05,0 -31.71,-3.99 -40.89,-11.95 -9.16,-7.96 -16.54,-20.09 -22.01,-36.33l-49.56 14.82c7.8,25.48 21.62,44.15 41.55,55.92 19.91,11.8 42.97,17.68 69.22,17.68 15.17,0 29.7,-2.09 43.46,-6.22 13.76,-4.13 25.93,-10.28 36.41,-18.4 10.52,-8.13 18.98,-18.32 25.25,-30.59 6.32,-12.27 9.49,-26.53 9.49,-42.79 0.01,-10.51 -1.44,-20.46 -4.37,-29.86z"/>
   <path class="fil2" d="M9997.4 21640.34l0.56 -0.95 0.6 0.95c0,0 0.57,-0.81 0.64,-0.92 0.07,0.1 0.63,0.92 0.63,0.92l0.57 -0.95 0.6 0.95c0,0 13.12,-18.14 36.12,-47.42l0 -3.06c95.43,-121.15 355.95,-427.29 621,-522.57 332.88,-119.67 1604.46,-220.67 2399.66,-1094.29 212.42,-233.33 393.52,-490.6 524.72,-783.06l-7166.61 0c131.2,292.45 312.32,549.74 524.72,783.06 795.2,873.62 2066.75,974.62 2399.67,1094.29 265.04,95.28 525.57,401.42 620.96,522.57l36.16 50.48z"/>
   <path class="fil3" d="M13441.68 18573.85c-13.41,-85.66 -35.04,-223.55 -48.44,-309.24 -670.27,118.56 -1339.89,241.58 -2009.64,363.71 -24.54,-74.44 -55.07,-146.15 -91.19,-214.59 641.03,-254.85 1284.6,-504.27 1917.56,-776.08 -37.22,-78.57 -97.16,-205 -134.37,-283.56 -623.14,304.9 -1244.29,614.08 -1865.88,922.3 -42.4,-62.13 -89.75,-120.65 -141.36,-175.3 553.66,-429.78 1111.96,-854.46 1652.98,-1298.46 -58.1,-65.17 -151.56,-170.04 -209.66,-235.24 -521.02,472.89 -1038.75,949.47 -1557.3,1425.12 -55.38,-47.03 -114.62,-89.75 -176.88,-128.13 415.71,-574.25 837.84,-1144.45 1237.29,-1728.86 -74.29,-46.61 -193.85,-121.53 -268.14,-168.1 -370.98,606 -737.63,1214.72 -1105.47,1822.74 -63.81,-30.45 -130.17,-56.45 -198.79,-77.44 238.35,-673.39 484.58,-1344.47 704.43,-2023.14 -84.6,-24.26 -220.66,-63.29 -305.26,-87.56 -185.56,690.3 -366.11,1382.04 -548.08,2073.38 -67.9,-13.13 -137.54,-21.56 -208.56,-24.94 37.5,-716.68 83.57,-1433.34 101.78,-2150 -88.09,0 -229.87,0 -317.96,0 18.21,716.93 41.7,1433.86 63.61,2150.77 -77.08,4.3 -152.44,14.71 -225.82,30.45 -182.52,-693.43 -363.61,-1387.27 -549.7,-2079.66 -84.59,24.27 -220.69,63.31 -305.25,87.56 220.77,681.63 468.24,1355.62 707.53,2031.93 -67.35,22.11 -132.47,48.86 -194.98,80.08 -370.17,-611.79 -739.07,-1224.36 -1112.38,-1834.17 -74.3,46.56 -193.89,121.5 -268.18,168.1 402.52,588.82 827.97,1163.25 1246.75,1741.91 -60.43,38.74 -117.55,81.95 -171.24,128.91 -523.63,-480.24 -1046.3,-961.46 -1572.37,-1438.95 -58.1,65.19 -151.58,170.08 -209.69,235.24 546.85,448.72 1111.18,877.78 1670.69,1312.29 -49.71,54.01 -95.46,111.62 -136.35,172.76 -629.14,-311.97 -1257.8,-624.98 -1888.56,-933.59 -37.22,78.55 -97.16,205 -134.41,283.56 641.35,275.41 1293.57,527.83 1942.99,786.16 -34.67,67.06 -64.17,137.1 -87.77,209.77 -679.37,-123.87 -1358.58,-248.71 -2038.49,-368.97 -13.4,85.68 -34.99,223.59 -48.4,309.24 679.81,86.04 1363.38,147.99 2046.11,215.55 -12.52,62.44 -21.17,126.26 -25.05,191.38l2873.42 -0.01c-3.99,-66.13 -12.74,-130.94 -25.62,-194.33 672.72,-66.4 1346.24,-127.82 2016.1,-212.59z"/>
   <path class="fil4" d="M9774.48 18425.15c-144.78,-182.03 -426.69,-186.68 -579.72,-7.61 -9.42,10.92 -21.77,17.11 -28.26,12.77 -6.45,-4.31 -4.27,-18.95 5.82,-31.61 161.72,-202.61 475.72,-207.26 645.69,-7.62 10.69,12.45 8.18,30.51 -4.73,39.23 -12.94,8.74 -29.95,5.99 -38.8,-5.16z"/>
   <path class="fil4" d="M9742.41 18499.55c-130.35,-153.07 -371.12,-149.5 -495.12,5.86 -7.73,9.7 -9.46,20.96 -4.45,24.24 4.94,3.31 14.39,-1.41 21.66,-9.77 64.21,-75.14 157.98,-107.81 247.93,-99.38 -21.2,15.58 -35.13,40.25 -35.13,68.33 0,47.24 38.91,85.52 86.89,85.52 15.34,-0.01 29.7,-3.92 42.19,-10.76 -27.09,-3.32 -48.12,-26.07 -48.12,-53.7 0,-29.88 24.66,-54.11 55,-54.11 6.74,-0.01 13.16,1.2 19.12,3.35 0.11,0.06 0.21,0.1 0.32,0.17 1.9,0.7 3.38,2.05 5.15,2.97 26.46,16.51 50.62,37.6 71.19,63.43 6.77,8.57 19.82,10.65 29.74,3.95 9.91,-6.71 11.81,-20.53 3.63,-30.1z"/>
   <path class="fil4" d="M10785.36 18425.15c-144.81,-182.03 -426.72,-186.68 -579.75,-7.61 -9.42,10.92 -21.77,17.11 -28.26,12.77 -6.45,-4.31 -4.27,-18.95 5.78,-31.61 161.72,-202.61 475.76,-207.26 645.69,-7.62 10.7,12.45 8.22,30.51 -4.72,39.23 -12.91,8.74 -29.92,5.99 -38.74,-5.16z"/>
   <path class="fil4" d="M10753.27 18499.55c-130.36,-153.07 -371.13,-149.5 -495.17,5.86 -7.69,9.7 -9.42,20.96 -4.44,24.24 4.97,3.31 14.42,-1.41 21.69,-9.77 64.17,-75.14 157.94,-107.81 247.93,-99.38 -21.23,15.58 -35.13,40.25 -35.13,68.33 0,47.24 38.87,85.52 86.89,85.52 15.31,-0.01 29.74,-3.92 42.19,-10.76 -27.13,-3.32 -48.12,-26.07 -48.12,-53.7 0.01,-29.88 24.62,-54.11 55,-54.11 6.74,-0.01 13.16,1.2 19.08,3.35 0.15,0.06 0.21,0.1 0.35,0.17 1.88,0.7 3.36,2.05 5.16,2.97 26.46,16.51 50.62,37.6 71.15,63.43 6.82,8.57 19.86,10.65 29.78,3.95 9.88,-6.71 11.81,-20.53 3.64,-30.1z"/>
   <path class="fil5" d="M13283.24 19065.86c-0.24,-0.38 -0.56,-0.69 -0.85,-1.08l-793.39 -945.95c-20.57,-24.48 -51.72,-28.11 -75.71,-11.49 -0.38,0.24 -0.74,0.46 -1.13,0.7 -4.15,3.03 -8.15,6.5 -11.75,10.76 0.01,0 0,0 -0.03,0.04l-472.61 563.45 -241.8 -288.33c-17.07,-20.34 -41.49,-26.17 -63.01,-18.12l0.01 0c-4.38,1.61 -8.65,3.81 -12.71,6.63 -0.35,0.24 -0.74,0.46 -1.13,0.71 -4.15,2.99 -8.15,6.49 -11.78,10.79l-474.09 565.28 -235.41 -280.67c-18.94,-22.61 -46.04,-29.06 -69.93,-20.13l0.01 -0.01 0 0.04c-4.87,1.8 -9.57,4.2 -14.08,7.34 -0.42,0.28 -0.85,0.5 -1.27,0.81 -4.62,3.35 -9.07,7.2 -13.05,11.96l-880.64 1049.94c-0.32,0.38 -0.67,0.77 -0.96,1.16 -2.71,3.25 -5.08,6.64 -7.16,10.16 -10.47,17.46 -13.86,37.75 -11.57,57.01 4.59,38.49 31.79,72.96 69.92,72.96l350.56 -0.01 1408.54 0c61.07,0 94.01,-88.19 51.22,-140.12 -0.31,-0.39 -0.64,-0.77 -0.96,-1.16l-219.17 -261.31 884.8 0c55,0 84.66,-79.47 46.14,-126.25 -0.28,-0.36 -0.6,-0.71 -0.88,-1.06l-123.97 -147.82 881.74 0c54.96,0 84.66,-79.48 46.1,-126.23z"/>
   <path class="fil4" d="M7180.65 18020.09c-1.73,-1.73 -1.74,-4.51 0.03,-6.17 4.38,-4.06 8.04,-8.08 9.84,-7.41 4.48,1.73 9.31,7.2 10.13,11.75 0.46,2.68 -6.53,9.21 -10.23,9.28 -2.93,0.07 -5.9,-3.53 -9.77,-7.45zm-490.47 717.13c0.6,0.78 0.95,1.73 0.91,2.72 -0.24,9.87 -9.38,18.41 0.6,26.39 12.53,10.01 23.15,4.51 32.99,0.84 20.56,-7.65 39.62,-19.22 59.65,-28.43 4.09,-1.9 12.91,-2.4 14.29,-0.25 9.6,14.95 23.07,9.67 34.01,5.4 13.65,-5.37 26.32,-13.76 38.38,-22.26 7.23,-5.09 10.76,-4.73 18.35,0.32 6.88,4.62 15.69,6.45 22.82,8.18 2.79,0.67 4.16,3.74 2.79,6.25 -2.09,3.8 -4.52,8.25 -6.25,12.91 -6.59,17.88 -11.53,36.44 -19.12,53.87 -7.47,17.28 -4.37,31.82 2.93,48.54 17.22,39.4 35.17,79.02 46.74,120.19 13.45,47.69 20.57,97.16 29.92,145.95 1.76,9.05 -0.35,18.94 1.94,27.76 2.26,8.89 7.76,16.97 12.06,25.29 1.63,3.17 4.52,5.82 5.58,9.1 7.55,23.92 16.44,31.54 41.52,32.95 12.45,0.7 24.94,0.29 38.7,0.18 2.96,-0.03 5.04,-2.86 4.23,-5.68 -6.1,-20.71 -19.08,-31.33 -36.9,-38.03 11.05,-3.49 26.39,-0.03 35.28,12.88 16.05,23.38 37.32,18.62 59.44,15.27 9.92,-1.52 20.04,-2.04 30.09,-2.82 2.48,-0.18 4.24,-2.36 4.06,-4.8 -1.69,-20.46 -25.43,-26 -47.76,-30.48 -21.03,-4.24 -42.48,-8.6 -62.06,-16.72 -11.11,-4.62 -23.42,-15.31 -27.37,-26.07 -16.72,-45.55 -32.35,-91.69 -44.74,-138.53 -9.27,-35.25 -13.72,-71.79 -19.05,-107.99 -4.76,-32.35 5.68,-61.84 23.04,-88.69 23.57,-36.52 48.86,-71.89 72.28,-108.48 6.15,-9.64 11.47,-19.75 16.94,-29.84 2.43,-4.41 9.28,-1.94 8.18,2.96 -0.67,3.17 -1.37,6.49 -2.15,9.95 -0.77,3.59 3.03,6.49 6.32,4.8 14.43,-7.28 27.44,-13.44 39.75,-20.82 57.72,-34.54 107.18,-76.94 130.07,-142.06 17.54,-49.67 13.8,-99.66 -6.7,-147.36 -15.52,-36.05 -37.89,-69.32 -53.13,-105.48 -19.36,-45.97 -36.09,-93.34 -18.17,-144.53 1.03,-2.97 -0.17,-6.7 -1.48,-10.87 -0.91,-2.82 1.31,-5.64 4.34,-5.57 19.94,0.67 35.63,-13.23 53.16,-23.95 9.21,-5.61 21.95,-5.89 33.2,-7.9 6.57,-1.21 13.55,-0.15 19.93,-1.73 2.47,-0.65 4.52,-2.79 6.56,-4.94 1.59,-1.67 1.59,-4.24 0.04,-5.93 -1.8,-1.94 -3.63,-3.84 -5.86,-4.8 -10.65,-4.55 -22.15,-7.4 -32.42,-12.59 -9.1,-4.59 -18.27,-10.02 -25.75,-16.83 -27.87,-25.3 -72.39,-21.91 -93.49,9.1 -22.36,32.91 -28.46,70.28 -25.43,108.98 3.67,46.94 16.05,92 35.31,135.29 12.85,28.92 24.48,58.35 35.92,87.84 9.06,23.34 12.73,47.31 -7.02,67.38 -20.64,20.95 -46.99,22.08 -72.89,12.77 -28.57,-10.3 -55.67,-24.66 -84.1,-35.56 -53.73,-20.68 -108.87,-23.42 -165.35,-11.5 -49.14,10.36 -95.67,26.85 -141.21,47.8 -22.23,10.19 -48.51,11.54 -71.9,19.76 -62.26,21.83 -111.3,60.67 -146.97,115.67 -5.89,9.06 -6.95,16.05 2.22,24.45 3.32,3.03 3.53,12.8 1.24,17.74 -19.23,41.48 -31.29,84.35 -26.42,130.21 4.9,45.89 26.52,81.81 68.72,104.11 8.18,4.33 16.54,8.92 24.51,-1.84 1.31,-1.77 6.88,-9.84 10.38,-11.99 9.77,-6.15 17.46,-0.49 22.12,-10.55 3.84,-8.26 2.39,-17.64 6.77,-17 2.58,0.38 4.87,-1.45 5.04,-4.02 0.32,-4.77 0.82,-9.6 -0.77,-13.69 -7.94,-20.4 30.27,-8.82 37.29,-11.08 29.46,-9.5 38.31,-39.12 43.85,-32.14z"/>
   <path class="fil4" d="M6735.55 19011.64c2.92,-48.01 2.96,-96.23 2.71,-144.35 -0.07,-14.5 -4.13,-29.28 -8.18,-43.39 -5.86,-20.39 -0.04,-40.53 17.81,-51.82 12.81,-8.09 26.18,-15.24 39.19,-22.69 1.34,-0.78 3.07,-0.7 4.41,0.07 38.11,22.05 61.32,-9.52 88.59,-23.31 1.62,-0.82 3.67,-0.46 5.04,0.81 2.9,2.67 5.61,5.22 8.19,7.58 1.9,1.76 1.79,4.76 -0.14,6.46 -19.69,16.68 -39.2,32.35 -57.3,49.42 -19.82,18.63 -36.72,39.73 -42.29,67.35 -14.61,72.11 -22.16,144.64 -18.63,218.47 2.33,49.88 19.75,66.61 64.31,77.19 19.26,4.55 38.95,7.44 58.21,11.92 14.82,3.45 22.33,12.63 22.68,24.56 0.08,2.25 -1.55,4.23 -3.81,4.55 -12.1,1.69 -23.85,3.56 -35.63,4.76 -19.47,2.01 -37.99,4.06 -51.36,-16.51 -8.96,-13.76 -23.25,-16.93 -35.1,-13.16 17.07,6.91 29.63,17.32 35.84,36.52 0.92,2.78 -1.17,5.67 -4.16,5.71 -17.25,0.24 -33.17,1.41 -48.65,-0.49 -17.64,-2.19 -31.01,-11.51 -32.18,-31.79 -0.17,-3.11 -3.38,-6.74 -6.17,-8.93 -13.76,-10.86 -19.4,-24.62 -17.25,-41.83 4.87,-38.99 11.46,-77.93 13.87,-117.1z"/>
   <path class="fil4" d="M8016.8 19196.78c-94.12,23.82 -229.91,23.82 -324.03,0.01 -91.58,-1360.67 9.49,-2596.73 308.58,-3822.8 42.4,10.73 85.12,10.73 127.56,0 -354.47,1537.88 -302.93,2309.49 -112.11,3822.79z"/>
   <polygon class="fil2" points="8126.16,15048.87 8677.02,14576.32 8497.95,14688.74 8633.84,14444.18 8452.27,14640.94 8567.77,14343.04 8404.71,14591.04 8503.88,14266.7 8350.6,14555.03 8430.82,14184.36 8292.95,14528.33 8344.53,14134.52 8231.04,14500.98 8248.61,14104.73 8178.3,14494.31 8148.7,14109.98 8112.05,14505.59 8053.88,14137.19 8050,14517.4 7964.69,14199.19 7989.57,14539.08 7885.67,14257.58 7932.27,14575.84 7799.14,14339.51 7877.31,14611.05 7728.02,14457.47 "/>
   <polygon class="fil2" points="8092.12,15085.76 7681.87,14490.65 7773.67,14679.15 7543.34,14516.88 7719.94,14717.97 7433.38,14569.24 7663.85,14758.43 7348.64,14622.47 7621.02,14806.96 7256.78,14683.9 7587.15,14860.06 7196.09,14762.21 7552.09,14917.25 7154.47,14852.31 7538.99,14967.96 7147.73,14950.53 7542.38,15034.04 7163.75,15046.44 7546.83,15096.08 7215.54,15141.06 7561.4,15157.76 7264.92,15225.29 7591.56,15218.16 7337.14,15319.72 7620.45,15276.08 7447.52,15403.42 "/>
   <polygon class="fil2" points="8717.66,15121.8 9119.65,15113.14 8719.07,15069.49 9104.45,15015.3 8701.12,15005.08 9067.62,14923.75 8683.09,14944.93 8996.15,14840.08 8655.26,14886.8 8929.26,14766.24 8612.46,14832.88 8837.85,14686.49 8571.44,14781.15 8711.77,14624.25 8152.83,15087.51 8685.67,15565.35 8554.29,15396.59 8814.99,15514.25 8598.11,15348.57 8910.53,15442.66 8643.79,15298.49 8981.26,15374.78 8674.84,15243.04 9057.21,15297.53 8696.18,15184.49 9099.05,15209.5 "/>
   <polygon class="fil2" points="8121.75,15101.13 7686.81,15381.6 7829.3,15316.12 7725.44,15465.2 7867.72,15347.17 7781.88,15530.04 7907.72,15379.55 7835.9,15579.35 7952.66,15403.42 7897.49,15632.65 8000.25,15421.6 7969,15665.99 8051.34,15440.28 8047.77,15687.09 8094.38,15445.82 8128.81,15686.44 8147.89,15440.53 8205.15,15671.94 8198.02,15434.78 8275.99,15635.59 8246.56,15422.84 8338.6,15601.22 8292.14,15401.39 8406.72,15552.36 8335.85,15380.86 8461.37,15480.61 "/>
   <g>
    <path class="fil1" d="M4367.21 28127.32c0,192.26 -158.86,321.88 -401.29,321.88l-361.56 0 0 -643.72 369.92 0c236.15,0 392.93,108.69 392.93,317.64l0 4.2zm-380.41 -474.41l-547.55 0 0 1462.96 165.11 0 0 -516.21 355.28 0c311.4,0 574.75,-163.06 574.75,-478.62l0 -4.16c0,-288.4 -217.35,-463.97 -547.59,-463.97z"/>
    <path class="fil1" d="M4958.78 28399.03l0 -593.55 451.42 0c236.18,0 374.08,108.69 374.08,288.4l0 4.16c0,188.07 -156.71,300.99 -376.17,300.99l-449.33 0zm992.71 -307.23l0 -4.17c0,-114.97 -41.8,-217.41 -112.85,-288.43 -91.97,-91.97 -236.15,-146.29 -415.89,-146.29l-629.07 0 0 1462.96 165.1 0 0 -568.46 417.97 0 424.29 568.46 202.7 0 -449.33 -597.71c229.87,-41.84 397.08,-183.94 397.08,-426.36z"/>
    <polygon class="fil1" points="6428.14,28453.36 7226.47,28453.36 7226.47,28302.86 6428.14,28302.86 6428.14,27803.4 7320.52,27803.4 7320.52,27652.91 6263.04,27652.91 6263.04,29115.87 7331,29115.87 7331,28965.38 6428.14,28965.38 "/>
    <polygon class="fil1" points="7621.62,29115.87 7786.72,29115.87 7786.72,28478.44 8578.81,28478.44 8578.81,28327.95 7786.72,28327.95 7786.72,27805.48 8672.86,27805.48 8672.86,27652.91 7621.62,27652.91 "/>
    <polygon class="fil1" points="9116.02,28453.36 9914.39,28453.36 9914.39,28302.86 9116.02,28302.86 9116.02,27803.4 10008.44,27803.4 10008.44,27652.91 8950.92,27652.91 8950.92,29115.87 10018.88,29115.87 10018.88,28965.38 9116.02,28965.38 "/>
    <polygon class="fil1" points="10324.14,29115.87 10489.24,29115.87 10489.24,27652.91 10324.14,27652.91 "/>
    <polygon class="fil1" points="10771.43,27805.48 11262.57,27805.48 11262.57,29115.87 11429.75,29115.87 11429.75,27805.48 11920.89,27805.48 11920.89,27652.91 10771.43,27652.91 "/>
    <path class="fil1" d="M13218.86 28503.52c0,319.73 -171.38,482.74 -440.97,482.74 -280.03,0 -447.26,-177.62 -447.26,-493.18l0.01 -840.17 -165.1 0 0 850.61c0,413.78 246.59,635.32 608.15,635.32 365.77,0 610.27,-221.54 610.27,-647.88l0 -838.05 -165.1 0 0 850.61z"/>
    <path class="fil1" d="M13898.21 28399.03l0 -593.55 451.45 0c236.15,0 374.08,108.69 374.08,288.4l0 4.16c0,188.07 -156.74,300.99 -376.2,300.99l-449.33 0zm992.75 -307.23l0 -4.17c0,-114.97 -41.81,-217.41 -112.89,-288.43 -91.93,-91.97 -236.15,-146.29 -415.89,-146.29l-629.08 0 0 1462.96 165.11 0 0 -568.46 418 0 424.25 568.46 202.71 0 -449.3 -597.71c229.87,-41.84 397.09,-183.94 397.09,-426.36z"/>
    <path class="fil1" d="M15484.61 28580.85l334.37 -746.09 332.31 746.09 -666.68 0zm259.15 -938.42l-666.67 1473.44 169.3 0 173.45 -386.64 796.26 0 171.34 386.64 177.69 0 -666.71 -1473.44 -154.66 0z"/>
    <polygon class="fil1" points="1414.5,25512.28 780.46,24483.41 2.18,24483.41 2.18,27141.02 723.54,27141.02 723.54,25622.42 1399.31,26655.07 1414.5,26655.07 2094.1,25614.8 2094.1,27141.02 2826.84,27141.02 2826.84,24483.41 2048.52,24483.41 "/>
    <path class="fil1" d="M5317.31 25819.8c0,383.47 -269.53,709.97 -675.78,709.97 -402.42,0 -679.6,-334.08 -679.6,-717.55l0.01 -7.59c0,-383.43 269.55,-709.96 672,-709.96 406.23,0 683.37,334.08 683.37,717.55l0 7.58zm-675.78 -1389.52c-820.07,0 -1435.1,618.84 -1435.1,1381.94l0 7.58c0,763.13 607.44,1374.35 1427.51,1374.35 820.07,0 1435.1,-618.84 1435.1,-1381.93l0 -7.59c0,-763.09 -607.45,-1374.35 -1427.51,-1374.35z"/>
    <path class="fil1" d="M8551.96 26320.96l0 -7.59c0,-497.34 -379.66,-694.79 -990.88,-827.65 -368.3,-83.54 -459.42,-136.67 -459.42,-258.2l0 -7.58c0,-94.9 87.31,-170.82 265.74,-170.82 235.42,0 501.16,91.13 744.15,261.94l368.31 -520.14c-288.58,-231.56 -641.64,-353.06 -1093.44,-353.06 -637.82,0 -1028.88,356.87 -1028.88,850.45l0 7.58c0,546.73 436.6,706.16 1002.31,835.24 360.69,83.54 448,144.25 448,254.35l0 7.62c0,113.91 -106.33,182.21 -303.74,182.21 -307.52,0 -599.87,-110.1 -861.84,-318.91l-410.03 489.8c326.53,292.31 774.52,440.37 1245.3,440.37 645.41,0 1074.42,-322.69 1074.42,-865.61z"/>
    <path class="fil1" d="M10989.35 26313.37c0,-497.34 -379.71,-694.79 -990.93,-827.65 -368.26,-83.54 -459.39,-136.67 -459.39,-258.2l0.01 -7.58c0,-94.9 87.31,-170.82 265.74,-170.82 235.41,0 501.16,91.13 744.15,261.94l368.27 -520.14c-288.53,-231.56 -641.64,-353.06 -1093.44,-353.06 -637.82,0 -1028.88,356.87 -1028.88,850.45l0.01 7.58c0,546.73 436.63,706.16 1002.31,835.24 360.68,83.54 447.99,144.25 447.99,254.35l0 7.62c0,113.91 -106.33,182.21 -303.71,182.21 -307.55,0 -599.9,-110.1 -861.83,-318.91l-410.04 489.8c326.5,292.31 774.53,440.37 1245.27,440.37 645.45,0 1074.46,-322.69 1074.46,-865.61l0.01 -7.59z"/>
    <path class="fil1" d="M13365.9 25819.8c0,383.47 -269.56,709.97 -675.78,709.97 -402.42,0 -679.6,-334.08 -679.6,-717.55l0.01 -7.59c0,-383.43 269.55,-709.96 672,-709.96 406.23,0 683.37,334.08 683.37,717.55l0 7.58zm751.77 -15.17c0,-763.09 -607.49,-1374.35 -1427.55,-1374.35 -820.07,0 -1435.1,618.84 -1435.1,1381.94l0 7.58c0,763.13 607.44,1374.35 1427.51,1374.35 820.07,0 1435.14,-618.84 1435.14,-1381.93l0 -7.59z"/>
    <path class="fil1" d="M16118.38 25443.95c0,193.61 -144.29,315.14 -394.9,315.14l-485.95 0 0 -637.83 482.21 0c246.77,0 398.63,106.26 398.63,315.07l0.01 7.62zm740.3 -45.54l0 -7.62c0,-261.97 -79.73,-466.97 -235.37,-618.84 -178.47,-182.25 -459.39,-288.54 -865.62,-288.54l-1256.65 0 0 2657.61 736.49 0 0 -804.86 322.72 0 535.3 804.86 850.44 0 -634 -926.35c330.27,-140.48 546.69,-410.04 546.69,-816.26z"/>
    <path class="fil1" d="M19250.45 25819.8c0,383.47 -269.57,709.97 -675.79,709.97 -402.44,0 -679.59,-334.08 -679.59,-717.55l0 -7.59c0,-383.43 269.56,-709.96 672.04,-709.96 406.19,0 683.33,334.08 683.33,717.55l0.01 7.58zm-675.79 -1389.52c-820.06,0 -1435.1,618.84 -1435.1,1381.94l0 7.58c0,763.13 607.45,1374.35 1427.55,1374.35 820.03,0 1435.07,-618.84 1435.07,-1381.93l0 -7.59c0,-763.09 -607.45,-1374.35 -1427.52,-1374.35z"/>
   </g>
   <polygon class="fil1" points="19053.49,24606.21 18575.44,24460.97 18290.15,24888.86 18662.61,24888.86 "/>
   <path class="fil2" d="M15417.76 20370.83c-14.14,-17.78 -32.25,-32.81 -54.15,-43.32 -200.27,-95.92 -507.83,-14.43 -798.34,-117.3 -291.7,-103.29 -196.46,-323.85 -399.59,-341.03 -68.26,-5.75 -132.82,32.92 -158.68,95.36 -602.65,1452.45 -2340.89,2582.58 -4024.42,2582.58 -1684.69,-0.01 -3386.81,-1048.92 -3986.88,-2499.79 -23.21,-56.13 -78,-93.41 -139.49,-96.09 -232.41,-10.31 -143.3,152.61 -443.58,258.97l-772.16 118.32c1051.17,2328.09 2984.81,3469.57 5360.7,3469.57 2358.65,0 4354.16,-1299.53 5416.45,-3426.88 0,0 0.1,-0.32 0.14,-0.39z"/>
   <path class="fil3" d="M10001.17 23798.1c-2375.88,0 -4309.53,-1141.48 -5360.7,-3469.57 -28.05,7.73 -54.89,16.51 -78.74,27.98 -75.11,35.94 -55.28,94.68 -24.34,171.03 861.06,2125.31 2978.92,3435.42 5451.54,3435.42 2472.69,-0.01 4590.56,-1310.15 5451.55,-3435.42 21.88,-53.98 11.39,-113.28 -22.86,-156.32 -1062.29,2127.35 -3057.81,3426.88 -5416.45,3426.88z"/>
   <path class="fil2" d="M4408.31 20644.38c-17.19,-39.77 -77.48,-27.77 -78.04,15.41l0 0.18c-3.77,332.95 257.17,806.41 185.28,1071.42 -8.36,30.87 21.31,58.56 52.1,48.54 95.47,-30.97 217.1,-76.59 348.44,-131.48 23.78,-9.95 32.14,-38.77 17.57,-59.76 -204.82,-295.59 -381.25,-611.57 -525.35,-944.31z"/>
   <path class="fil2" d="M5322.35 19991.49c-242.5,-542.58 -358.21,-1149.6 -312.63,-1781.99 5.47,-75.71 13.26,-150.6 23.18,-224.79 4.58,-34.11 -33.98,-58.13 -63.12,-39.12 -271.95,177.34 -538.62,478.3 -784.01,827.86 -13.23,18.84 -39.83,23.57 -58.49,9.81 -406.33,-299.87 -542.99,-685.38 -858.03,-1007.67 -13.21,102.55 -23.92,205.77 -31.47,310.12 -98.97,1372.87 321.42,2663.83 1096.55,3687.03 37.29,37.35 69,14.67 74.68,-13.09 57.57,-178.33 -81.35,-485.18 -145.8,-800.31 -83.96,-411.03 -31.58,-800.03 489.44,-823.85 150.67,-6.84 320.46,-3.6 485.28,-61.91 17.78,-6.32 42.09,-17.78 65.9,-29.91 19.26,-9.81 27.23,-32.6 18.52,-52.18z"/>
   <path class="fil2" d="M16766.61 18085.71c-7.55,-104.36 -18.28,-207.57 -31.51,-310.12 -315.02,322.29 -451.66,707.81 -858.03,1007.67 -18.65,13.75 -45.26,9.03 -58.49,-9.81 -245.39,-349.57 -512.02,-650.52 -784.01,-827.86 -29.1,-19.01 -67.66,5.01 -63.11,39.12 9.91,74.18 17.71,149.09 23.18,224.79 45.58,632.39 -70.1,1239.42 -312.6,1781.99 -8.74,19.58 -0.78,42.37 18.49,52.18 23.82,12.13 48.11,23.6 65.89,29.91 164.83,58.31 334.65,55.07 485.29,61.91 521.01,23.81 573.4,412.82 489.44,823.85 -64.45,315.13 -203.34,621.98 -145.8,800.31 5.68,27.76 37.39,50.44 74.68,13.09 775.13,-1023.2 1195.53,-2314.16 1096.58,-3687.03z"/>
   <path class="fil2" d="M15674.13 20659.97l0 -0.18c-0.61,-43.18 -60.86,-55.17 -78.08,-15.41 -144.07,332.74 -320.53,648.72 -525.35,944.31 -14.57,20.99 -6.18,49.81 17.56,59.76 131.38,54.89 252.98,100.51 348.44,131.48 30.84,10.02 60.47,-17.67 52.11,-48.54 -71.86,-265.01 189.05,-738.47 185.32,-1071.42z"/>
   <polygon class="fil5" points="5976.62,21067.18 5693.72,21161.44 5692.95,21160.49 5853.46,20909.38 5765.12,20796.24 5425.65,21061.29 5484.07,21136.07 5744.42,20932.8 5745.16,20933.76 5551.8,21222.89 5596.32,21279.94 5926.31,21165.81 5927.09,21166.8 5666.7,21370.07 5725.12,21444.86 6064.56,21179.85 "/>
   <path class="fil5" d="M6380.19 21512.66l-65.54 -68.65 -188.7 180.27c-9.67,9.25 -20.11,16.27 -31.26,21.03 -11.15,4.76 -22.4,7.2 -33.73,7.37 -11.32,0.21 -22.33,-1.9 -32.98,-6.31 -10.65,-4.41 -20.32,-11.18 -29,-20.28 -8.68,-9.04 -15.06,-19.13 -19.12,-30.1 -4.06,-11.01 -5.72,-22.15 -5.05,-33.44 0.71,-11.36 3.67,-22.47 8.96,-33.41 5.26,-10.87 12.74,-20.99 22.44,-30.2l188.7 -180.27 -65.54 -68.65 -191.38 182.81c-18.45,17.64 -32.81,36.69 -43.01,57.08 -10.23,20.43 -15.8,41.6 -16.72,63.54 -0.95,21.94 3.17,44.17 12.42,66.71 9.24,22.61 24.23,44.73 44.98,66.43 20.42,21.44 41.73,37.25 63.85,47.55 22.12,10.23 44.17,15.38 66.14,15.45 21.91,0.07 43.32,-4.51 64.17,-13.76 20.89,-9.28 40.54,-22.79 59.02,-40.42l191.35 -182.75z"/>
   <polygon class="fil5" points="6686.3,21786.14 6489.87,22012.02 6488.99,22011.21 6547.2,21665.24 6449.9,21580.61 6167.29,21905.55 6238.87,21967.85 6440.06,21736.5 6440.98,21737.31 6381.64,22092 6475.27,22173.42 6757.88,21848.47 "/>
   <polygon class="fil5" points="6838.91,21907.46 6578.81,22250.71 6654.44,22308.04 6914.55,21964.71 "/>
   <path class="fil5" d="M7166.43 22275.19l93.8 -9.1c-1.23,-14.96 -4.48,-29.03 -9.74,-42.33 -5.29,-13.3 -11.92,-25.51 -19.82,-36.62 -7.94,-11.18 -16.76,-21.34 -26.5,-30.48 -9.73,-9.14 -19.65,-17.14 -29.77,-23.88 -28.01,-18.66 -56.73,-31.5 -86.22,-38.49 -29.45,-6.95 -58.21,-8.04 -86.36,-3.14 -28.11,4.9 -54.75,15.77 -79.87,32.63 -25.15,16.86 -47.31,39.62 -66.43,68.3 -19.11,28.72 -31.64,57.89 -37.57,87.6 -5.89,29.67 -5.71,58.42 0.57,86.25 6.31,27.84 18.34,54.01 36.09,78.56 17.78,24.48 40.67,46.11 68.65,64.81 24.62,16.4 51.96,27.34 81.98,32.74 30.03,5.43 59.73,2.54 89.11,-8.58l-33.05 -92.99c-16.23,6.77 -32.77,9.35 -49.78,7.76 -16.96,-1.59 -33.58,-7.76 -49.77,-18.55 -14.15,-9.49 -25.51,-21.17 -33.98,-35.1 -8.5,-13.98 -13.86,-29.14 -16.12,-45.51 -2.22,-16.34 -1.3,-33.27 2.82,-50.77 4.1,-17.5 11.79,-34.64 23.04,-51.54 11.01,-16.55 23.88,-30.09 38.56,-40.78 14.68,-10.73 30.09,-18.1 46.21,-22.19 16.16,-4.13 32.46,-4.8 48.93,-2.15 16.48,2.75 32.18,9.03 46.99,18.94 14.86,9.91 26.25,21.14 34.19,33.8 7.9,12.56 12.59,26.18 14.04,40.81z"/>
   <polygon class="fil5" points="7564.39,22242.56 7457.19,22180.05 7360,22224.78 7429.35,22265.25 "/>
   <polygon class="fil5" points="7355.62,22258.86 7138.7,22630.9 7220.69,22678.7 7437.61,22306.66 "/>
   <path class="fil5" d="M7666.39 22576.32c-4.63,9.04 -10.17,15.67 -16.62,19.87 -6.46,4.23 -13.41,6.63 -20.75,7.23 -7.33,0.57 -14.88,-0.18 -22.68,-2.36 -7.76,-2.12 -15.49,-5.12 -23.07,-9l-56.37 -28.68 46.32 -91.05 43.39 22.04c7.94,4.03 16.05,8.76 24.23,14.01 8.22,5.33 15.03,11.4 20.43,18.28 5.4,6.8 8.82,14.35 10.33,22.64 1.49,8.26 -0.28,17.29 -5.21,27.02zm87.8 44.7c11.57,-22.82 17.32,-43.67 17.18,-62.61 -0.17,-18.95 -4.55,-36.2 -13.26,-51.79 -8.68,-15.53 -20.96,-29.63 -36.83,-42.3 -15.88,-12.56 -33.77,-23.99 -53.63,-34.08l-142.59 -72.53 -195.26 383.82 84.56 43.07 76.13 -149.64 61.81 31.46c20.21,10.31 40,17.89 59.26,22.97 19.3,5.04 37.57,6.25 54.82,3.64 17.26,-2.62 33.31,-9.67 48.3,-21.17 14.96,-11.5 28.12,-28.43 39.51,-50.84z"/>
   <polygon class="fil5" points="7882.29,22532.83 7709.5,22927.3 7796.38,22965.37 7969.21,22570.93 "/>
   <path class="fil5" d="M8309.82 22931.15c-6.81,19.08 -16.02,35.49 -27.63,49.25 -11.6,13.72 -24.97,24.38 -40.25,32.1 -15.24,7.69 -31.75,12 -49.49,12.91 -17.82,1.02 -36.27,-1.94 -55.36,-8.78 -19.08,-6.85 -35.2,-16.26 -48.33,-28.26 -13.15,-12.03 -23.17,-25.86 -30.05,-41.48 -6.95,-15.64 -10.48,-32.39 -10.76,-50.35 -0.25,-17.96 3.07,-36.47 9.91,-55.56 6.71,-18.73 15.84,-35.03 27.52,-48.96 11.64,-13.91 25.08,-24.73 40.36,-32.39 15.23,-7.69 31.71,-12.03 49.52,-12.98 17.79,-0.92 36.24,1.97 55.32,8.82 19.09,6.8 35.21,16.3 48.33,28.29 13.16,12.03 23.18,25.86 30.06,41.45 6.91,15.63 10.48,32.49 10.65,50.66 0.18,18.13 -3.1,36.58 -9.8,55.28zm86.6 -144.43c-12.84,-25.47 -30.87,-47.97 -54.01,-67.45 -23.21,-19.51 -50.62,-34.96 -82.3,-46.25 -31.71,-11.36 -62.69,-16.86 -92.99,-16.51 -30.27,0.39 -58.46,6.35 -84.56,17.89 -26.07,11.53 -49.29,28.54 -69.61,50.98 -20.32,22.47 -36.26,49.95 -47.91,82.37 -11.6,32.46 -16.68,63.78 -15.23,94.02 1.44,30.26 8.6,58.13 21.44,83.6 12.85,25.51 30.87,48.02 54.05,67.49 23.18,19.47 50.59,34.89 82.27,46.25 31.68,11.36 62.69,16.83 92.95,16.44 30.31,-0.32 58.49,-6.28 84.6,-17.82 26.07,-11.57 49.32,-28.57 69.6,-51.01 20.33,-22.44 36.3,-49.88 47.91,-82.34 11.61,-32.45 16.69,-63.85 15.24,-94.05 -1.44,-30.27 -8.61,-58.1 -21.45,-83.61z"/>
   <path class="fil5" d="M9116.3 23125.35c-4.48,23.89 -12.14,43.43 -23,58.53 -10.86,15.07 -24.03,26.42 -39.48,34.04 -15.45,7.66 -32.84,11.93 -52.21,12.88 -19.36,0.88 -39.83,-0.67 -61.35,-4.66l-48.43 -9.06 46.92 -251.14 55.03 10.26c19.51,3.63 37.68,9.63 54.5,17.96 16.8,8.25 30.87,18.62 42.16,31.08 11.29,12.41 19.4,26.98 24.31,43.81 4.9,16.79 5.43,35.56 1.55,56.3zm52.6 -155.71c-19.54,-21.17 -43.89,-38.45 -72.96,-51.68 -29.06,-13.27 -60.53,-23.11 -94.43,-29.42l-139.91 -26.14 -79.13 423.33 152.5 28.5c31.47,5.89 62.41,6.92 92.82,3.11 30.44,-3.78 58.28,-12.53 83.5,-26.14 25.23,-13.66 46.78,-32.32 64.63,-55.99 17.82,-23.71 29.95,-52.7 36.34,-86.96 7.23,-38.7 6.7,-72.85 -1.59,-102.45 -8.29,-29.56 -22.19,-54.96 -41.77,-76.16z"/>
   <polygon class="fil5" points="9286.48,23372.26 9588.46,23402.99 9597.31,23315.85 9389.74,23294.72 9398.63,23207.59 9584.4,23226.49 9593.29,23139.36 9407.48,23120.45 9415.6,23040.55 9612.31,23060.55 9621.16,22973.41 9330.05,22943.81 "/>
   <polygon class="fil5" points="10386.27,22972.49 10301.6,23258.46 10300.4,23258.53 10186.42,22983.15 10043.08,22990.8 10065.98,23420.84 10160.74,23415.79 10143.2,23085.95 10144.4,23085.92 10270.7,23409.97 10342.98,23406.09 10438.4,23070.25 10439.61,23070.18 10457.18,23400.03 10551.93,23394.95 10529,22964.94 "/>
   <path class="fil5" d="M10995.48 23168.11c-3.59,17.6 -10.16,33.45 -19.83,47.52 -9.66,14.07 -22.08,25.79 -37.18,35.21 -15.13,9.42 -32.7,15.7 -52.74,18.87 -20.04,3.21 -38.67,2.72 -56.02,-1.51 -17.32,-4.24 -32.71,-11.51 -46.29,-21.84 -13.57,-10.38 -24.76,-23.36 -33.65,-38.98 -8.86,-15.63 -14.89,-33.48 -18.1,-53.48 -3.1,-19.62 -2.93,-38.35 0.6,-56.17 3.49,-17.81 10.09,-33.72 19.75,-47.8 9.68,-14.08 22.05,-25.82 37.19,-35.21 15.13,-9.41 32.7,-15.69 52.7,-18.87 20.08,-3.21 38.7,-2.72 56.02,1.48 17.33,4.23 32.74,11.54 46.36,21.87 13.52,10.41 24.76,23.5 33.69,39.3 8.86,15.81 14.89,33.55 17.99,53.17 3.22,20.03 3.03,38.84 -0.49,56.44zm65.9 -161.78c-15.81,-25.79 -35.49,-46.74 -59.02,-62.94 -23.53,-16.16 -50.17,-27.16 -79.87,-33.12 -29.66,-5.93 -61.14,-6.25 -94.37,-0.96 -33.23,5.33 -63.08,15.46 -89.43,30.34 -26.35,14.89 -48.19,33.66 -65.51,56.34 -17.32,22.68 -29.46,48.76 -36.44,78.21 -6.98,29.46 -7.8,61.24 -2.37,95.22 5.44,34.04 16.05,63.99 31.93,89.78 15.81,25.86 35.49,46.78 59.05,62.97 23.5,16.16 50.1,27.2 79.8,33.13 29.71,5.92 61.17,6.28 94.41,0.91 33.19,-5.29 63.04,-15.38 89.39,-30.27 26.36,-14.88 48.19,-33.69 65.55,-56.37 17.32,-22.69 29.45,-48.75 36.44,-78.24 7.02,-29.43 7.8,-61.18 2.33,-95.26 -5.4,-34.01 -16.05,-63.92 -31.89,-89.74z"/>
   <path class="fil5" d="M11446.12 23033.21c-13.06,-12.24 -27.84,-20.88 -44.35,-25.96 -16.5,-5.12 -33.65,-7.98 -51.36,-8.54 -17.68,-0.64 -34.29,-1.52 -49.85,-2.68 -15.52,-1.13 -28.86,-3.92 -39.97,-8.26 -11.11,-4.3 -18.2,-12.8 -21.34,-25.4 -1.98,-7.86 -1.66,-15.03 0.91,-21.55 2.58,-6.5 6.6,-12.17 12.03,-17.08 5.47,-4.9 11.54,-9.03 18.28,-12.34 6.7,-3.36 13.4,-5.86 20.07,-7.52 11.4,-2.86 24.06,-3.6 37.99,-2.22 13.95,1.38 25.79,5.82 35.63,13.37l46.01 -84.78c-21.66,-11.28 -44.31,-17.6 -68.02,-18.83 -23.7,-1.2 -47.34,1.13 -70.98,7.02 -20.45,5.08 -39.65,12.84 -57.5,23.35 -17.88,10.48 -32.74,23.29 -44.66,38.35 -11.92,15.1 -20.25,32.21 -24.84,51.33 -4.69,19.12 -4.23,39.9 1.38,62.33 5.75,23.25 15.2,40.72 28.36,52.46 13.16,11.82 28.08,20.22 44.84,25.23 16.66,5.07 34.15,8.08 52.35,8.96 18.21,0.88 35.17,2.11 51.01,3.6 15.85,1.51 29.46,4.69 40.96,9.59 11.43,4.9 18.73,13.62 21.87,26.21 1.85,7.48 1.59,14.43 -0.77,20.89 -2.36,6.45 -6.18,12.2 -11.4,17.21 -5.21,5.12 -11.43,9.49 -18.66,13.13 -7.26,3.7 -14.61,6.45 -22.08,8.32 -15.38,3.81 -31.08,4.06 -47.13,0.74 -16.08,-3.35 -30.38,-10.09 -43.01,-20.39l-47.66 88.33c24.74,13.52 49.67,21.49 74.97,24.03 25.26,2.47 51.47,0.35 78.63,-6.38 21.63,-5.4 41.52,-13.27 59.62,-23.6 18.14,-10.38 33.16,-23.08 45.09,-38.14 11.93,-15.1 20.07,-32.35 24.41,-51.86 4.34,-19.44 3.67,-40.78 -2.08,-64.03 -6.1,-24.41 -15.67,-42.68 -28.75,-54.89z"/>
   <path class="fil5" d="M11807.93 22919.86c-13.9,-11.25 -29.25,-18.87 -46.11,-22.79 -16.79,-3.88 -34.08,-5.57 -51.76,-4.9 -17.7,0.63 -34.39,0.92 -49.95,0.81 -15.62,-0.04 -29.07,-1.8 -40.46,-5.36 -11.4,-3.53 -19.09,-11.5 -23.07,-23.85 -2.5,-7.69 -2.72,-14.92 -0.64,-21.55 2.15,-6.64 5.71,-12.6 10.83,-17.93 5.09,-5.25 10.9,-9.77 17.32,-13.61 6.46,-3.78 12.91,-6.74 19.51,-8.86 11.19,-3.67 23.78,-5.25 37.75,-4.9 14.01,0.39 26.14,3.99 36.44,10.83l39.94 -87.77c-22.37,-9.78 -45.41,-14.47 -69.15,-14.01 -23.74,0.46 -47.17,4.48 -70.31,11.96 -20.04,6.49 -38.63,15.63 -55.7,27.34 -17.07,11.78 -31.05,25.58 -41.88,41.45 -10.79,15.88 -17.85,33.52 -21.16,52.92 -3.28,19.4 -1.38,40.08 5.75,62.09 7.41,22.75 18.06,39.55 31.99,50.34 14.01,10.83 29.46,18.17 46.5,22.01 17.04,3.89 34.64,5.58 52.88,5.26 18.21,-0.39 35.28,-0.42 51.19,0 15.84,0.35 29.7,2.61 41.45,6.67 11.75,4.06 19.65,12.24 23.67,24.59 2.41,7.3 2.61,14.32 0.71,20.88 -1.91,6.6 -5.26,12.6 -10.13,18.03 -4.89,5.39 -10.76,10.19 -17.74,14.36 -6.91,4.16 -14.11,7.48 -21.42,9.84 -15.02,4.86 -30.69,6.24 -46.99,4.09 -16.26,-2.22 -31.01,-7.97 -44.27,-17.28l-41.31 91.4c25.58,11.74 51.01,17.96 76.41,18.7 25.37,0.7 51.4,-3.25 78,-11.89 21.21,-6.92 40.5,-16.12 57.82,-27.73 17.36,-11.64 31.43,-25.33 42.26,-41.24 10.84,-15.87 17.75,-33.65 20.71,-53.41 2.97,-19.76 0.78,-40.96 -6.6,-63.75 -7.78,-23.88 -18.59,-41.45 -32.48,-52.74z"/>
   <path class="fil5" d="M12229.53 22832.48c-6.03,15.98 -15.24,30.3 -27.73,43.04 -12.41,12.77 -28.01,23.07 -46.67,30.9 -18.7,7.9 -36.94,11.85 -54.75,11.89 -17.81,0.03 -34.54,-3.32 -50.2,-10.2 -15.66,-6.81 -29.64,-16.75 -41.95,-29.84 -12.38,-13.06 -22.44,-28.93 -30.34,-47.59 -7.69,-18.35 -11.99,-36.55 -12.84,-54.72 -0.81,-18.13 1.8,-35.17 7.87,-51.11 6,-15.99 15.24,-30.34 27.69,-43.08 12.43,-12.74 28.05,-23 46.71,-30.9 18.67,-7.87 36.94,-11.85 54.75,-11.89 17.82,-0.04 34.54,3.39 50.17,10.2 15.67,6.84 29.7,16.89 42.08,30.12 12.42,13.27 22.51,29.07 30.2,47.35 7.87,18.69 12.17,37 12.95,54.96 0.74,17.96 -1.91,34.89 -7.94,50.87zm33.41 -223.7c-21.52,-21.3 -45.65,-36.97 -72.29,-47.06 -26.73,-10.05 -55.24,-14.46 -85.44,-13.16 -30.3,1.31 -60.92,8.54 -91.93,21.59 -31.04,13.09 -57.58,30.03 -79.63,50.77 -22.07,20.7 -38.77,44.2 -50.16,70.34 -11.42,26.14 -17.08,54.37 -16.83,84.6 0.26,30.33 7.06,61.31 20.43,93.06 13.4,31.78 30.87,58.31 52.39,79.62 21.52,21.24 45.61,37.01 72.31,47.1 26.72,10.05 55.21,14.43 85.41,13.12 30.31,-1.34 60.93,-8.5 91.97,-21.62 30.98,-13.09 57.54,-29.99 79.59,-50.7 22.05,-20.78 38.77,-44.2 50.2,-70.38 11.43,-26.14 17,-54.36 16.79,-84.66 -0.24,-30.24 -7.02,-61.28 -20.43,-93.03 -13.4,-31.79 -30.83,-58.31 -52.38,-79.59z"/>
   <path class="fil5" d="M12557.83 22511.06c-5.4,6.32 -12.14,11.96 -20.26,16.97 -8.14,4.97 -16.01,9.53 -23.49,13.51l-49.42 26.25 -45.93 -86.5 54.78 -29.14c7.52,-3.95 15.56,-7.51 23.99,-10.62 8.44,-3.11 16.51,-4.73 24.2,-4.94 7.69,-0.21 15.06,1.55 22.05,5.15 6.98,3.63 13.05,10.27 18.17,19.97 5.54,10.4 7.55,19.65 6.13,27.76 -1.43,8.11 -4.83,15.35 -10.22,21.59zm106.86 -15.38c3.98,-26.21 -1.14,-52.77 -15.39,-79.65 -11.81,-22.2 -25.54,-38.67 -41.1,-49.43 -15.63,-10.8 -32.24,-17.11 -50.02,-18.94 -17.71,-1.8 -36.3,0 -55.67,5.46 -19.37,5.47 -38.67,13.34 -58.03,23.61l-147.21 78.13 202 380.4 83.82 -44.52 -80.79 -152.08 41.38 -21.94 160.24 109.85 100.5 -53.37 -182 -109.29c24.17,-19.26 38.27,-42.02 42.27,-68.23z"/>
   <polygon class="fil5" points="12868.41,21981.54 12764.38,22049.2 12760.68,22156.13 12827.99,22112.35 "/>
   <path class="fil5" d="M13082.16 22360.25c-3.14,16.76 -9.67,32.53 -19.65,47.27 -10.05,14.75 -23.53,27.63 -40.54,38.67 -16.99,11.07 -34.25,18.2 -51.79,21.38 -17.48,3.17 -34.57,2.82 -51.18,-1.17 -16.62,-3.99 -32.11,-11.29 -46.57,-21.94 -14.43,-10.69 -27.2,-24.52 -38.28,-41.52 -10.82,-16.66 -18.23,-33.83 -22.26,-51.54 -4.05,-17.72 -4.51,-34.93 -1.37,-51.76 3.14,-16.76 9.66,-32.52 19.68,-47.23 10.02,-14.75 23.5,-27.63 40.5,-38.7 17.01,-11.08 34.26,-18.17 51.79,-21.35 17.54,-3.17 34.57,-2.82 51.19,1.13 16.62,3.99 32.17,11.4 46.71,22.23 14.57,10.86 27.3,24.59 38.13,41.24 11.09,17 18.56,34.29 22.44,51.79 3.89,17.53 4.34,34.71 1.2,51.5zm58.95 -157.02c-18.77,-28.9 -40.68,-51.93 -65.62,-69.07 -24.93,-17.15 -51.47,-28.3 -79.52,-33.52 -28.04,-5.22 -56.9,-4.48 -86.39,2.12 -29.56,6.66 -58.46,19.19 -86.68,37.53 -28.18,18.35 -51.33,39.73 -69.36,64 -18.01,24.3 -30.37,50.37 -36.97,78.14 -6.62,27.79 -7.09,56.48 -1.55,86.25 5.58,29.77 17.78,59.09 36.55,87.99 18.77,28.92 40.67,51.96 65.62,69.07 24.94,17.14 51.47,28.33 79.51,33.55 28.05,5.18 56.91,4.48 86.43,-2.15 29.5,-6.67 58.39,-19.16 86.65,-37.54 28.18,-18.35 51.32,-39.69 69.35,-63.99 18.03,-24.31 30.38,-50.38 36.97,-78.14 6.64,-27.77 7.13,-56.52 1.55,-86.26 -5.56,-29.77 -17.74,-59.12 -36.54,-87.98z"/>
   <polygon class="fil5" points="13438.29,21685.74 13411.69,21867.67 13489.94,21878.07 13504.22,21763.88 13721.92,22009.83 13787.5,21951.8 13502.04,21629.26 "/>
   <path class="fil5" d="M13963.08 21675.12c-12.77,13.02 -26.78,19.79 -41.98,20.22 -15.13,0.45 -28.12,-4.63 -38.84,-15.07 -11.01,-10.8 -16.44,-23.78 -16.34,-38.98 0.15,-15.24 6.57,-29.35 19.34,-42.33 12.8,-13.06 26.77,-19.79 41.94,-20.25 15.21,-0.43 28.33,4.69 39.3,15.48 10.73,10.55 16.05,23.36 15.91,38.56 -0.1,15.17 -6.6,29.32 -19.33,42.37zm-129.96 -127.25c-11.08,11.26 -23.36,17.15 -36.83,17.61 -13.48,0.38 -24.98,-4.09 -34.51,-13.44 -9.27,-9.07 -13.82,-20.36 -13.72,-33.8 0.18,-13.51 5.75,-25.93 16.86,-37.22 11.02,-11.29 23.29,-17.14 36.8,-17.6 13.45,-0.43 24.83,3.92 34.08,12.98 9.6,9.38 14.28,20.82 14.14,34.29 -0.14,13.51 -5.75,25.86 -16.82,37.18zm206.37 -9.95c-19.12,-18.69 -39.93,-29.45 -62.51,-32.24 -22.5,-2.75 -45.33,2.72 -68.41,16.41l-0.87 -0.81c11.25,-21.35 15.41,-42.37 12.48,-63.15 -2.96,-20.78 -12.84,-39.37 -29.67,-55.81 -14.18,-13.94 -29.28,-23.32 -45.22,-28.15 -15.98,-4.87 -32,-6.11 -48.19,-3.81 -16.19,2.33 -32.14,8 -47.84,17.07 -15.66,9.03 -30.44,20.67 -44.38,34.89 -13.9,14.14 -25.19,29.17 -33.9,45.09 -8.75,15.87 -14.18,31.99 -16.26,48.29 -2.15,16.37 -0.53,32.42 4.79,48.19 5.33,15.7 15.07,30.52 29.28,44.38 16.8,16.44 35.6,25.96 56.41,28.47 20.82,2.5 41.81,-2.05 62.9,-13.79l0.89 0.87c-13.23,23.36 -18.24,46.26 -15,68.73 3.25,22.5 14.43,43.11 33.55,61.84 14.78,14.46 30.73,24.27 47.8,29.39 17.15,5.14 34.29,6.31 51.47,3.56 17.19,-2.75 34.05,-8.82 50.56,-18.17 16.55,-9.35 31.75,-21.13 45.68,-35.35 13.9,-14.15 25.33,-29.63 34.36,-46.32 9,-16.76 14.71,-33.72 17.11,-51.01 2.37,-17.22 0.81,-34.29 -4.66,-51.33 -5.46,-16.97 -15.59,-32.77 -30.37,-47.24z"/>
   <path class="fil5" d="M14274.2 21222.12c-16.66,-14.18 -34.12,-24.2 -52.29,-30.02 -18.19,-5.86 -36.26,-7.73 -54.18,-5.72 -17.96,2.05 -35.32,7.94 -52.11,17.64 -16.76,9.74 -32.21,22.97 -46.35,39.65 -10.48,12.35 -17.54,23.18 -21.1,32.39l-49.35 -44.31 110.56 -130.35 -61.24 -51.93 -168.38 198.54 178.18 157.55c5.51,-13.97 12.07,-27.69 19.72,-41.09 7.7,-13.45 16.37,-25.9 26.07,-37.29 7.62,-9 15.98,-17.32 25.12,-24.94 9.21,-7.66 18.94,-13.38 29.24,-17.11 10.34,-3.71 20.92,-4.84 31.68,-3.46 10.77,1.44 21.56,6.74 32.39,15.91 14.22,12.06 22.19,26.46 24.02,43.14 1.81,16.65 -3.56,32.42 -16.19,47.28 -10.19,12.06 -22.4,19.05 -36.44,20.91 -14.11,1.87 -27.8,-1.23 -41.14,-9.38l-45.07 86.99c34.15,16.8 66.35,21.49 96.51,14.08 30.17,-7.3 57.33,-25.22 81.49,-53.69 15.21,-17.96 26.64,-36.8 34.4,-56.55 7.76,-19.79 11.29,-39.48 10.69,-59.16 -0.6,-19.69 -5.47,-38.81 -14.64,-57.47 -9.17,-18.66 -23,-35.91 -41.59,-51.61z"/>
   <path class="fil5" d="M14450.44 21099.39l-13.51 -171.98c-1.12,-10.87 -2.72,-21.34 -4.87,-31.47 -2.14,-10.13 -5.43,-19.9 -9.77,-29.39 -4.37,-9.49 -10.23,-18.66 -17.57,-27.55 -7.3,-8.89 -16.51,-17.39 -27.62,-25.5 -17.35,-12.74 -34.64,-20.99 -51.97,-24.84 -17.27,-3.88 -33.93,-3.88 -50.02,-0.1 -16.12,3.8 -31.4,10.93 -45.86,21.44 -14.49,10.51 -27.52,23.61 -39.02,39.3 -12.41,17.04 -21.8,34.44 -28.04,52.25 -6.21,17.78 -8.89,35.31 -7.94,52.56 0.89,17.29 5.61,34.05 14.04,50.28 8.47,16.26 21.38,31.46 38.63,45.61l59.34 -69.64c-11.71,-10.09 -19.02,-22.08 -21.91,-36.02 -2.93,-13.9 0.7,-27.76 10.76,-41.52 8.37,-11.43 19.05,-18.94 31.96,-22.54 12.95,-3.6 25.33,-1.1 37.11,7.55 10.45,7.65 17.15,17.78 19.97,30.41 2.79,12.62 4.76,24.66 6,36.05l22.37 223.73 78.03 57.15 177.52 -242.46 -64.77 -47.42 -112.86 154.1z"/>
   <path class="fil5" d="M14665.18 20528.1c-44.38,-0.53 -80.89,35.14 -81.39,79.52 -0.52,44.38 35.17,80.85 79.52,81.38 44.38,0.53 80.89,-35.17 81.42,-79.51 0.53,-44.39 -35.17,-80.9 -79.55,-81.39z"/>
   <path class="fil5" d="M5474.4 20645.4c0.49,-44.38 -35.17,-80.89 -79.55,-81.42 -44.34,-0.5 -80.86,35.17 -81.35,79.55 -0.53,44.38 35.13,80.86 79.51,81.38 44.35,0.5 80.86,-35.17 81.39,-79.51z"/>
  </g>
 </g>
</svg>
