<?xml version="1.0" encoding="UTF-8"?>
<!DOCTYPE svg PUBLIC "-//W3C//DTD SVG 1.1//EN" "http://www.w3.org/Graphics/SVG/1.1/DTD/svg11.dtd">
<!-- Creator: CorelDRAW 2021 (64-Bit Evaluation Version) -->
<svg xmlns="http://www.w3.org/2000/svg" xml:space="preserve" width="109.402mm" height="378.975mm" version="1.1" style="shape-rendering:geometricPrecision; text-rendering:geometricPrecision; image-rendering:optimizeQuality; fill-rule:evenodd; clip-rule:evenodd"
viewBox="0 0 10182.87 35274.09"
 xmlns:xlink="http://www.w3.org/1999/xlink"
 xmlns:xodm="http://www.corel.com/coreldraw/odm/2003">
 <defs>
  <style type="text/css">
   <![CDATA[
    .fil3 {fill:#FEFEFE}
    .fil1 {fill:#606062}
    .fil2 {fill:#67462E}
    .fil0 {fill:#4F5051}
    .fil4 {fill:#FEFEFE}
   ]]>
  </style>
 </defs>
 <g id="Layer_x0020_1">
  <metadata id="CorelCorpID_0Corel-Layer"/>
  <g id="_2660160457200">
   <path class="fil0" d="M558.19 5086.65c0,-2497.14 2024.34,-4521.46 4521.46,-4521.46 2497.17,-0.01 4521.47,2024.34 4521.47,4521.46 0.02,2497.15 -2024.31,4521.47 -4521.47,4521.47 -2497.12,0 -4521.47,-2024.32 -4521.46,-4521.47z"/>
   <path class="fil1" d="M782.19 5062.5c0,-2363.96 1916.38,-4280.31 4280.33,-4280.31 2363.95,-0.02 4280.33,1916.34 4280.33,4280.32 0.01,2363.93 -1916.39,4280.29 -4280.33,4280.29 -2363.94,-0.01 -4280.33,-1916.35 -4280.33,-4280.3zm-782.18 0c0,2795.93 2266.58,5062.49 5062.5,5062.49 2795.94,0 5062.5,-2266.55 5062.5,-5062.48 0.01,-2795.96 -2266.58,-5062.5 -5062.5,-5062.5 -2795.91,-0.02 -5062.51,2266.55 -5062.5,5062.49z"/>
   <path class="fil2" d="M5062.52 1236.62l0 16.42c1051.98,0.04 2004.25,426.39 2693.66,1115.77 689.39,689.44 1115.76,1641.69 1115.76,2693.71 0,1051.97 -426.37,2004.26 -1115.76,2693.67 -689.42,689.37 -1641.68,1115.76 -2693.67,1115.76 -1051.99,0 -2004.26,-426.37 -2693.68,-1115.76 -689.42,-689.42 -1115.75,-1641.68 -1115.75,-2693.67 0,-1052.03 426.33,-2004.26 1115.75,-2693.71 689.43,-689.39 1641.69,-1115.72 2693.68,-1115.76l0.01 -16.43 0 -16.42c-2122.04,0.04 -3842.28,1720.28 -3842.28,3842.31 0,2122.04 1720.23,3842.24 3842.27,3842.27 2122.04,0 3842.26,-1720.23 3842.26,-3842.27 0.01,-2122.05 -1720.22,-3842.27 -3842.26,-3842.3l0.01 16.4z"/>
   <path class="fil3" d="M1236.67 5062.5c0,-2112.97 1712.87,-3825.88 3825.85,-3825.88 2112.99,-0.01 3825.85,1712.91 3825.85,3825.89 0,2112.93 -1712.88,3825.85 -3825.85,3825.85 -2112.96,0 -3825.85,-1712.91 -3825.85,-3825.86zm-454.48 0c0,2363.94 1916.38,4280.3 4280.33,4280.3 2363.95,-0.01 4280.33,-1916.35 4280.33,-4280.29 0.01,-2363.97 -1916.39,-4280.32 -4280.33,-4280.32 -2363.94,-0.02 -4280.33,1916.34 -4280.33,4280.31z"/>
   <path class="fil3" d="M5258.62 5301.51c131.99,-108.29 151.23,-303.09 42.9,-435.09 -108.24,-132.01 -303.07,-151.24 -435.1,-42.95 -131.99,108.29 -151.21,303.11 -42.92,435.1 108.26,132.02 303.07,151.24 435.12,42.94z"/>
   <polygon class="fil3" points="6448.07,6264.1 5150.35,4968.27 4974.69,5156.71 6272.45,6452.56 "/>
   <polygon class="fil3" points="3631.63,7683.03 5172.38,5129.76 4952.64,4995.26 3411.9,7548.56 "/>
   <polygon class="fil3" points="5178.46,1478.17 4912.29,1478.17 4912.29,2106.15 5178.46,2106.15 "/>
   <polygon class="fil3" points="5178.46,8067.13 4912.29,8067.13 4912.29,8695.11 5178.46,8695.11 "/>
   <polygon class="fil3" points="1436.9,4953.56 1436.9,5219.72 2064.89,5219.72 2064.89,4953.56 "/>
   <polygon class="fil3" points="8025.88,4953.56 8025.88,5219.72 8653.86,5219.72 8653.86,4953.56 "/>
   <polygon class="fil3" points="3401.58,1871.57 3169.25,2001.37 3475.54,2549.6 3707.87,2419.79 "/>
   <polygon class="fil3" points="6615.21,7623.7 6382.87,7753.52 6689.16,8301.75 6921.52,8171.91 "/>
   <polygon class="fil3" points="1830.28,6730.43 1960.11,6962.77 2508.34,6656.51 2378.49,6424.14 "/>
   <polygon class="fil3" points="7582.44,3516.8 7712.23,3749.13 8260.45,3442.85 8130.65,3210.51 "/>
   <polygon class="fil3" points="2064.81,3048.23 1922.77,3273.29 2453.85,3608.47 2595.9,3383.4 "/>
   <polygon class="fil3" points="7636.91,6564.84 7494.85,6789.92 8025.93,7125.08 8167.99,6899.98 "/>
   <polygon class="fil3" points="3006.97,8067.2 3232.03,8209.25 3567.19,7678.21 3342.13,7536.15 "/>
   <polygon class="fil3" points="6523.58,2495.11 6748.62,2637.17 7083.81,2106.11 6858.72,1964.07 "/>
   <polygon class="fil1" points="2115,10326.68 2115,11685.16 2319.3,11685.16 2319.3,10816.1 2601.37,11685.16 2820.93,11685.16 2820.93,10326.68 2616.61,10326.68 2616.61,11238.43 2345.21,10326.68 "/>
   <polygon class="fil1" points="3586.45,11685.16 3586.45,11479.33 3208.34,11479.33 3208.34,11108.84 3484.3,11108.84 3484.3,10903.01 3208.34,10903.01 3208.34,10532.51 3586.45,10532.51 3586.45,10326.68 3004.04,10326.68 3004.04,11685.16 "/>
   <polygon class="fil1" points="4468.38,11053.94 4361.66,10328.2 4148.2,10328.2 4049.09,11055.48 3942.37,10328.2 3727.4,10328.2 3954.57,11685.16 4151.25,11685.16 4259.51,10941.12 4375.39,11685.16 4570.54,11685.16 4782.46,10328.2 4569.01,10328.2 "/>
   <polygon class="fil1" points="5339.11,11685.16 5543.44,11685.16 5543.44,11116.46 5817.87,10326.68 5592.21,10326.68 5441.27,10814.57 5290.34,10326.68 5064.69,10326.68 5339.11,11116.46 "/>
   <path class="fil1" d="M6001.67 10405.96c-62.52,64.03 -94.55,140.28 -94.55,230.23l0.02 740.99c0,89.96 32,166.19 94.51,228.71 62.52,64.03 138.75,96.05 228.7,96.05 89.96,0 166.19,-32.02 230.23,-94.53 62.52,-64.04 94.53,-140.27 94.53,-230.23l0.02 -740.99c0,-89.96 -32.04,-166.19 -94.55,-228.7 -62.5,-64.05 -140.27,-96.06 -230.23,-96.06 -88.42,0 -164.66,32.02 -228.7,94.53l0.02 0zm339.99 968.17c0,33.54 -10.68,60.98 -33.55,83.85 -22.86,22.87 -50.32,33.55 -83.86,33.55 -32.01,-0.01 -59.46,-10.68 -82.33,-33.55 -22.86,-22.87 -35.07,-50.31 -35.07,-83.85l0.02 -741c0,-33.54 12.18,-60.98 35.05,-83.85 22.87,-22.87 50.31,-33.55 82.33,-33.55 33.55,0 60.98,10.68 83.86,33.55 22.87,22.87 33.54,50.32 33.54,83.86l0.01 740.99z"/>
   <path class="fil1" d="M6736.6 10328.2l0 1356.97 204.3 0 0 -510.76 118.93 0c6.1,0 12.18,0 18.29,0l125.02 510.76 219.55 0 -150.94 -593.1c73.19,-65.55 109.78,-146.36 109.78,-242.42l0.02 -198.21c0,-97.58 -22.89,-173.81 -70.15,-228.7 -53.36,-62.52 -137.22,-94.53 -251.57,-94.53l-323.22 -0.01zm445.21 526.02c0,32.02 -10.69,59.47 -33.56,82.34 -22.85,22.86 -51.83,35.07 -83.85,35.07l-123.5 -0.01 0 -434.52 123.51 0c77.76,0 117.38,39.64 117.38,117.4l0.02 199.73z"/>
   <polygon class="fil1" points="7863.87,11133.22 8078.84,11685.16 8319.74,11685.16 7991.93,10881.65 8272.48,10326.68 8052.93,10326.68 7802.87,10811.53 7802.87,10326.68 7598.58,10326.68 7598.58,11685.16 7802.87,11685.16 7802.87,11256.73 "/>
  </g>
  <g id="_2659460865536">
   <path class="fil4" d="M5559.09 10753.06c0,0 -0.01,0 0,0z"/>
   <path class="fil0" d="M577.39 16979.2c0,-2497.17 2024.34,-4521.47 4521.46,-4521.47 2497.17,-0.01 4521.47,2024.31 4521.47,4521.47 0.02,2497.15 -2024.31,4521.47 -4521.47,4521.47 -2497.12,-0.01 -4521.47,-2024.32 -4521.46,-4521.47z"/>
   <path class="fil1" d="M5081.72 21235.35c-2363.95,0 -4280.34,-1916.35 -4280.34,-4280.33 0,-2363.95 1916.38,-4280.29 4280.33,-4280.29 2363.95,-0.01 4280.33,1916.35 4280.33,4280.29 0.01,2363.97 -1916.39,4280.33 -4280.32,4280.33zm0 -9342.8c-2795.92,0 -5062.52,2266.56 -5062.52,5062.48 0.01,2795.96 2266.59,5062.5 5062.51,5062.5 2795.94,0 5062.5,-2266.54 5062.5,-5062.5 0.01,-2795.92 -2266.58,-5062.47 -5062.49,-5062.48z"/>
   <path class="fil2" d="M5081.72 13129.18l0 -16.42c-2122.04,0 -3842.28,1720.23 -3842.28,3842.27 0,2122.04 1720.23,3842.27 3842.27,3842.3 2122.04,-0.04 3842.26,-1720.27 3842.26,-3842.3 0.01,-2122.05 -1720.22,-3842.27 -3842.26,-3842.27l0.01 16.42 0 16.42c1051.98,0 2004.25,426.37 2693.66,1115.76 689.39,689.42 1115.76,1641.68 1115.76,2693.67 0,1052.02 -426.37,2004.26 -1115.76,2693.71 -689.42,689.38 -1641.68,1115.72 -2693.67,1115.76 -1051.99,-0.04 -2004.26,-426.37 -2693.68,-1115.76 -689.42,-689.45 -1115.75,-1641.68 -1115.75,-2693.71 0,-1051.99 426.33,-2004.26 1115.75,-2693.67 689.43,-689.39 1641.69,-1115.76 2693.68,-1115.76l0.01 -16.42z"/>
   <path class="fil3" d="M5081.72 20780.91c-2112.97,0 -3825.86,-1712.91 -3825.86,-3825.89 0,-2112.94 1712.87,-3825.85 3825.85,-3825.85 2112.99,0 3825.85,1712.91 3825.85,3825.85 0,2112.98 -1712.88,3825.89 -3825.84,3825.89zm0 -8106.19c-2363.95,0 -4280.34,1916.36 -4280.34,4280.3 0,2363.97 1916.38,4280.33 4280.33,4280.33 2363.95,0 4280.33,-1916.35 4280.33,-4280.33 0.01,-2363.95 -1916.39,-4280.29 -4280.32,-4280.3z"/>
   <path class="fil3" d="M4829.8 16775.82c99,-139.12 292,-171.67 431.13,-72.67 139.13,98.96 171.67,292 72.7,431.13 -98.99,139.12 -292.01,171.67 -431.14,72.67 -139.11,-98.98 -171.66,-292.01 -72.69,-431.14z"/>
   <polygon class="fil3" points="3787.94,15655.12 5169.72,16860.95 4993.76,17049.14 3611.96,15843.31 "/>
   <polygon class="fil3" points="3549.93,19517.92 4968.01,16894.51 5195.43,17015.57 3777.32,19638.98 "/>
   <polygon class="fil3" points="4965.77,13370.71 5231.94,13370.71 5231.94,13998.7 4965.77,13998.7 "/>
   <polygon class="fil3" points="4965.77,19959.69 5231.94,19959.69 5231.94,20587.67 4965.77,20587.67 "/>
   <polygon class="fil3" points="8707.35,16846.11 8707.35,17112.27 8079.36,17112.27 8079.36,16846.11 "/>
   <polygon class="fil3" points="2118.37,16846.11 2118.37,17112.27 1490.38,17112.27 1490.38,16846.11 "/>
   <polygon class="fil3" points="6742.65,13764.09 6974.99,13893.92 6668.7,14442.14 6436.36,14312.31 "/>
   <polygon class="fil3" points="3529.02,19516.25 3761.36,19646.07 3455.07,20194.3 3222.73,20064.47 "/>
   <polygon class="fil3" points="8313.97,18622.99 8184.13,18855.33 7635.92,18549.03 7765.75,18316.69 "/>
   <polygon class="fil3" points="2561.82,15409.35 2432.01,15641.69 1883.79,15335.4 2013.59,15103.06 "/>
   <polygon class="fil3" points="8079.42,14940.78 8221.47,15165.84 7690.39,15500.99 7548.37,15275.95 "/>
   <polygon class="fil3" points="2507.33,18457.39 2649.39,18682.44 2118.3,19017.6 1976.25,18792.54 "/>
   <polygon class="fil3" points="7137.26,19959.75 6912.21,20101.8 6577.06,19570.72 6802.12,19428.67 "/>
   <polygon class="fil3" points="3620.69,14387.67 3395.62,14529.72 3060.45,13998.63 3285.55,13856.58 "/>
   <path class="fil1" d="M3448.12 22163.85l0 1356.97 204.31 0 0 -510.77 118.93 0c88.43,0 163.13,-32.02 225.64,-96.06 62.53,-62.51 94.53,-138.74 94.53,-228.7l0.01 -198.21c0,-93 -27.45,-169.23 -82.34,-228.7 -59.46,-62.51 -138.75,-94.53 -237.85,-94.53l-323.22 0zm445.21 526.02c0,32.02 -10.69,59.46 -33.55,82.33 -22.86,22.87 -51.84,35.07 -83.86,35.07l-123.49 0 0 -434.53 123.5 0c35.05,0 64.02,10.68 85.37,32.02 21.35,22.87 32.01,50.31 32.01,85.38l0.02 199.74z"/>
   <path class="fil1" d="M4601.04 23208.25l47.26 312.56 214.99 0 -227.18 -1356.97 -282.07 0 -230.21 1356.97 213.44 0 50.34 -312.56 213.44 0zm-30.49 -199.74l-152.45 0 76.22 -533.63 76.23 533.63z"/>
   <path class="fil1" d="M5035.57 22163.85l0 1356.97 204.31 0 0 -510.77 118.93 0c6.1,0 12.18,0 18.29,0l125.02 510.77 219.55 0 -150.93 -593.1c73.18,-65.56 109.77,-146.37 109.77,-242.43l0.02 -198.21c0,-97.57 -22.89,-173.81 -70.15,-228.7 -53.36,-62.51 -137.21,-94.53 -251.57,-94.53l-323.22 0zm445.21 526.02c0,32.02 -10.69,59.46 -33.55,82.33 -22.85,22.87 -51.84,35.07 -83.86,35.07l-123.49 0 0 -434.53 123.5 0c77.76,0 117.39,39.64 117.39,117.4l0.01 199.74z"/>
   <polygon class="fil1" points="6101.81,22163.85 5897.51,22163.85 5897.51,23520.82 6101.81,23520.82 "/>
   <path class="fil1" d="M6919.75 23054.27c-7.62,-19.83 -18.3,-41.17 -32.02,-64.04 -27.43,-48.79 -65.56,-99.11 -117.4,-149.42 -13.71,-16.77 -45.74,-44.22 -93,-83.86 -41.17,-33.55 -71.66,-62.51 -91.49,-86.91 -53.35,-64.04 -80.8,-126.55 -80.8,-189.06 0,-39.64 7.62,-73.19 24.39,-99.1 18.3,-33.55 47.26,-50.32 85.39,-50.32 35.07,0 62.51,10.68 80.8,33.55 25.93,30.49 42.69,73.19 48.79,129.59l196.69 -36.59c-6.09,-57.94 -21.35,-111.3 -45.75,-157.04 -24.38,-44.22 -57.94,-80.81 -97.58,-105.21 -51.82,-32.02 -114.35,-48.78 -187.53,-48.78 -76.23,-0.01 -140.27,19.82 -190.59,57.93 -83.85,62.51 -125.02,157.04 -125.02,280.54 0,68.61 15.25,131.12 45.74,190.58 27.46,51.84 76.24,109.78 143.32,176.87 80.81,76.23 141.79,132.64 182.96,172.29 50.32,54.89 76.23,111.3 76.23,167.72 0.02,38.12 -6.1,68.61 -19.82,89.96 -27.43,42.69 -62.51,64.04 -108.25,65.55 -32.01,1.53 -59.47,-10.67 -83.86,-38.12 -33.54,-35.06 -54.89,-93 -62.51,-172.29l-195.15 15.25c4.56,71.66 19.81,135.7 44.2,192.11 25.93,56.4 60.99,100.63 105.21,132.64 53.38,39.64 118.93,59.46 199.74,59.46 42.7,0 80.8,-4.57 112.82,-15.25 61,-18.29 108.26,-50.31 141.79,-96.05 50.33,-67.09 74.71,-147.9 73.19,-242.43 0.01,-38.12 -10.68,-82.33 -30.49,-129.59l0 0z"/>
  </g>
  <path class="fil0" d="M616.02 28743.13c0,-2497.17 2024.35,-4521.47 4521.47,-4521.47 2497.16,-0.01 4521.47,2024.31 4521.47,4521.47 0,2497.15 -2024.31,4521.47 -4521.47,4521.47 -2497.12,-0.01 -4521.47,-2024.32 -4521.47,-4521.47z"/>
  <path class="fil1" d="M840.06 28718.96c0,-2363.95 1916.35,-4280.29 4280.3,-4280.29 2363.97,-0.01 4280.33,1916.35 4280.33,4280.29 0,2363.97 -1916.36,4280.33 -4280.33,4280.33 -2363.94,0 -4280.3,-1916.35 -4280.3,-4280.33zm-782.21 0c0,2795.96 2266.59,5062.5 5062.51,5062.5 2795.93,0 5062.5,-2266.54 5062.5,-5062.5 0,-2795.92 -2266.59,-5062.47 -5062.5,-5062.47 -2795.93,-0.01 -5062.51,2266.55 -5062.51,5062.47z"/>
  <path class="fil2" d="M5120.36 24893.11l0 16.42c1052.03,0 2004.26,426.37 2693.67,1115.76 689.43,689.42 1115.76,1641.68 1115.76,2693.67 0,1052.02 -426.34,2004.26 -1115.76,2693.71 -689.42,689.38 -1641.65,1115.72 -2693.67,1115.76 -1051.99,-0.04 -2004.26,-426.37 -2693.68,-1115.76 -689.42,-689.45 -1115.75,-1641.68 -1115.75,-2693.71 0,-1051.99 426.33,-2004.26 1115.75,-2693.67 689.43,-689.39 1641.69,-1115.76 2693.68,-1115.76l0 -16.42 0 -16.42c-2122.04,0 -3842.27,1720.23 -3842.27,3842.27 0,2122.04 1720.23,3842.27 3842.27,3842.3 2122.05,-0.04 3842.27,-1720.27 3842.27,-3842.3 0,-2122.05 -1720.23,-3842.27 -3842.27,-3842.27l0 16.42z"/>
  <path class="fil3" d="M1294.51 28718.96c0,-2112.94 1712.87,-3825.85 3825.85,-3825.85 2112.97,0 3825.85,1712.91 3825.85,3825.85 0,2112.98 -1712.88,3825.89 -3825.85,3825.89 -2112.98,0 -3825.85,-1712.91 -3825.85,-3825.89zm-454.45 0c0,2363.97 1916.35,4280.33 4280.3,4280.33 2363.97,0 4280.33,-1916.35 4280.33,-4280.33 0,-2363.95 -1916.36,-4280.29 -4280.33,-4280.29 -2363.94,-0.01 -4280.3,1916.35 -4280.3,4280.29z"/>
  <path class="fil3" d="M5208.69 29015.24c163.62,-48.76 256.74,-220.95 207.94,-384.57 -48.76,-163.63 -220.96,-256.74 -384.57,-207.98 -163.66,48.79 -256.74,220.96 -207.98,384.61 48.76,163.62 220.95,256.74 384.61,207.94z"/>
  <polygon class="fil3" points="5933.01,30363.15 5237.82,28666.07 5002.91,28771.87 5698.1,30468.94 "/>
  <polygon class="fil3" points="3791.5,31384.93 5236.89,28776.46 5012.34,28650.17 3566.93,31258.64 "/>
  <polygon class="fil3" points="5236.31,25134.65 4970.14,25134.65 4970.14,25762.63 5236.31,25762.63 "/>
  <polygon class="fil3" points="5236.31,31723.63 4970.14,31723.63 4970.14,32351.61 5236.31,32351.61 "/>
  <polygon class="fil3" points="1494.74,28610.04 1494.74,28876.21 2122.73,28876.21 2122.73,28610.04 "/>
  <polygon class="fil3" points="8083.72,28610.04 8083.72,28876.21 8711.7,28876.21 8711.7,28610.04 "/>
  <polygon class="fil3" points="3459.43,25528.02 3227.09,25657.86 3533.38,26206.07 3765.72,26076.25 "/>
  <polygon class="fil3" points="6673.06,31280.19 6440.72,31410.01 6747.01,31958.24 6979.35,31828.4 "/>
  <polygon class="fil3" points="1888.15,30386.92 2017.95,30619.26 2566.17,30312.97 2436.37,30080.63 "/>
  <polygon class="fil3" points="7640.27,27173.29 7770.1,27405.63 8318.33,27099.34 8188.49,26867 "/>
  <polygon class="fil3" points="2122.66,26704.72 1980.61,26929.78 2511.7,27264.92 2653.74,27039.88 "/>
  <polygon class="fil3" points="7694.78,30221.33 7552.7,30446.38 8083.78,30781.53 8225.84,30556.48 "/>
  <polygon class="fil3" points="3064.82,31723.69 3289.87,31865.74 3625.05,31334.65 3399.97,31192.61 "/>
  <polygon class="fil3" points="6581.42,26151.61 6806.47,26293.65 7141.66,25762.57 6916.57,25620.51 "/>
  <polygon class="fil1" points="3353.01,35257.31 3557.32,35257.31 3557.32,34106.18 3773.83,34106.18 3773.83,33900.35 3134.98,33900.35 3134.98,34106.18 3353.01,34106.18 "/>
  <path class="fil1" d="M4009.16 33978.11c-62.51,64.04 -94.53,140.27 -94.53,230.23l0 740.99c0,89.95 32.02,166.19 94.53,228.7 62.51,64.04 138.75,96.06 228.7,96.06 89.96,0 166.19,-32.02 230.23,-94.53 62.52,-64.04 94.53,-140.28 94.53,-230.23l0.01 -740.99c0,-89.96 -32.03,-166.19 -94.54,-228.7 -62.51,-64.05 -140.27,-96.06 -230.23,-96.06 -88.42,0 -164.66,32.02 -228.7,94.53l0 0zm340.01 968.16c0,33.55 -10.68,60.99 -33.55,83.86 -22.88,22.87 -50.32,33.54 -83.86,33.54 -32.01,0 -59.46,-10.67 -82.33,-33.54 -22.87,-22.88 -35.07,-50.32 -35.07,-83.86l0 -740.99c0,-33.55 12.19,-60.98 35.07,-83.85 22.87,-22.88 50.31,-33.55 82.33,-33.55 33.55,0 60.98,10.68 83.86,33.55 22.87,22.87 33.54,50.31 33.54,83.85l0.01 740.99z"/>
  <polygon class="fil1" points="5008.31,34705.38 5223.28,35257.31 5464.18,35257.31 5136.37,34453.8 5416.92,33898.83 5197.36,33898.83 4947.31,34383.67 4947.31,33898.83 4743.01,33898.83 4743.01,35257.31 4947.31,35257.31 4947.31,34828.88 "/>
  <polygon class="fil1" points="5843.69,35257.31 6048,35257.31 6048,34688.61 6322.45,33898.83 6096.79,33898.83 5945.85,34386.72 5794.9,33898.83 5569.26,33898.83 5843.69,34688.61 "/>
  <path class="fil1" d="M6506.23 33978.11c-62.51,64.04 -94.53,140.27 -94.53,230.23l0 740.99c0,89.95 32.02,166.19 94.53,228.7 62.52,64.04 138.74,96.06 228.7,96.06 89.96,0 166.19,-32.02 230.23,-94.53 62.51,-64.04 94.53,-140.28 94.53,-230.23l0 -740.99c0,-89.96 -32.02,-166.19 -94.53,-228.7 -62.51,-64.05 -140.27,-96.06 -230.23,-96.06 -88.42,0 -164.66,32.02 -228.7,94.53l0 0zm340.01 968.16c0,33.55 -10.69,60.99 -33.55,83.86 -22.86,22.87 -50.32,33.54 -83.85,33.54 -32.02,0 -59.47,-10.67 -82.34,-33.54 -22.87,-22.88 -35.06,-50.32 -35.06,-83.86l0 -740.99c0,-33.55 12.19,-60.98 35.06,-83.85 22.87,-22.88 50.32,-33.55 82.34,-33.55 33.55,0 60.98,10.68 83.85,33.55 22.88,22.87 33.55,50.31 33.55,83.85l0.01 740.99z"/>
 </g>
</svg>
