<svg xmlns="http://www.w3.org/2000/svg" width="179.992" height="207.014" viewBox="0 0 179.992 207.014">
  <defs>
    <style>
      .cls-1 {
        fill: #4f5051;
      }

      .cls-1, .cls-2, .cls-3, .cls-4, .cls-5 {
        fill-rule: evenodd;
      }

      .cls-2 {
        fill: #fdee00;
      }

      .cls-3 {
        fill: #67462e;
      }

      .cls-4 {
        fill: #fefefe;
      }

      .cls-5 {
        fill: #606062;
      }
    </style>
  </defs>
  <g id="Grupo_2" data-name="Grupo 2" transform="translate(-112.831 -260.412)">
    <path id="Caminho_156" data-name="Caminho 156" class="cls-1" d="M577.39,12538.105a80.378,80.378,0,1,1,80.378,80.379A80.378,80.378,0,0,1,577.39,12538.105Z" transform="translate(-454.636 -12187.269)"/>
    <path id="Caminho_157" data-name="Caminho 157" class="cls-2" d="M109.2,12058.586a76.091,76.091,0,1,1,76.091-76.091,76.091,76.091,0,0,1-76.091,76.091Zm0-166.086a90,90,0,1,0,90,90,90,90,0,0,0-90-90Z" transform="translate(93.631 -11632.088)"/>
    <path id="Caminho_158" data-name="Caminho 158" class="cls-3" d="M1307.744,13113.07v-.291a68.3,68.3,0,1,0,68.3,68.3,68.3,68.3,0,0,0-68.3-68.3v.584a67.719,67.719,0,1,1-47.885,19.834,67.511,67.511,0,0,1,47.885-19.834Z" transform="translate(-1104.917 -12830.674)"/>
    <path id="Caminho_159" data-name="Caminho 159" class="cls-4" d="M877.472,12818.814a68.013,68.013,0,1,1,68.012-68.013A68.013,68.013,0,0,1,877.472,12818.814Zm0-144.1a76.091,76.091,0,1,0,76.091,76.091A76.091,76.091,0,0,0,877.472,12674.711Z" transform="translate(-674.644 -12400.394)"/>
    <path id="Caminho_160" data-name="Caminho 160" class="cls-4" d="M4773.555,16648.156a5.5,5.5,0,1,1,1.292,7.662,5.494,5.494,0,0,1-1.292-7.662Z" transform="translate(-4575.206 -16300.933)"/>
    <path id="Caminho_161" data-name="Caminho 161" class="cls-4" d="M3615.088,15655.1l24.564,21.436-3.128,3.346-24.564-21.436Z" transform="translate(-3435.261 -15327.8)"/>
    <path id="Caminho_162" data-name="Caminho 162" class="cls-4" d="M3549.93,16941.137l25.209-46.637,4.043,2.152-25.209,46.637Z" transform="translate(-3374.333 -16545.168)"/>
    <path id="Caminho_163" data-name="Caminho 163" class="cls-4" d="M4965.771,13370.7h4.731v11.164h-4.731Z" transform="translate(-4765.004 -13084.009)"/>
    <path id="Caminho_164" data-name="Caminho 164" class="cls-4" d="M4965.771,19959.7h4.731v11.164h-4.731Z" transform="translate(-4765.004 -19555.875)"/>
    <path id="Caminho_165" data-name="Caminho 165" class="cls-4" d="M8090.523,16846.1v4.732H8079.36v-4.732Z" transform="translate(-7823.244 -16497.629)"/>
    <path id="Caminho_166" data-name="Caminho 166" class="cls-4" d="M1501.544,16846.1v4.732H1490.38v-4.732Z" transform="translate(-1351.396 -16497.629)"/>
    <path id="Caminho_167" data-name="Caminho 167" class="cls-4" d="M6441.8,13764.1l4.13,2.307-5.445,9.746-4.13-2.308Z" transform="translate(-6209.451 -13470.416)"/>
    <path id="Caminho_168" data-name="Caminho 168" class="cls-4" d="M3228.175,19516.3l4.13,2.307-5.445,9.746-4.13-2.307Z" transform="translate(-3052.95 -19120.359)"/>
    <path id="Caminho_169" data-name="Caminho 169" class="cls-4" d="M7647.973,18322.145l-2.308,4.129-9.746-5.445,2.308-4.129Z" transform="translate(-7387.687 -17942.086)"/>
    <path id="Caminho_170" data-name="Caminho 170" class="cls-4" d="M1895.843,15108.543l-2.308,4.131-9.746-5.444,2.307-4.13Z" transform="translate(-1737.812 -14785.613)"/>
    <path id="Caminho_171" data-name="Caminho 171" class="cls-4" d="M7557.811,14940.8l2.525,4-9.44,5.96-2.525-4Z" transform="translate(-7301.693 -14626.198)"/>
    <path id="Caminho_172" data-name="Caminho 172" class="cls-4" d="M1985.691,18457.4l2.525,4-9.441,5.961-2.525-4Z" transform="translate(-1828.628 -18080.281)"/>
    <path id="Caminho_173" data-name="Caminho 173" class="cls-4" d="M6587.019,19438.141l-4,2.523-5.958-9.441,4-2.523Z" transform="translate(-6347.65 -19034.316)"/>
    <path id="Caminho_174" data-name="Caminho 174" class="cls-4" d="M3070.409,13866.04l-4,2.524-5.958-9.441,4-2.523Z" transform="translate(-2893.555 -13561.271)"/>
    <path id="Caminho_175" data-name="Caminho 175" class="cls-5" d="M3448.12,22163.8v24.123h3.632v-9.08h2.114a5.4,5.4,0,0,0,4.011-1.707,5.549,5.549,0,0,0,1.68-4.066v-3.523a5.761,5.761,0,0,0-1.464-4.066,5.571,5.571,0,0,0-4.228-1.68Zm7.914,9.352a1.987,1.987,0,0,1-.6,1.463,2.07,2.07,0,0,1-1.491.623h-2.2v-7.723h2.2a2.067,2.067,0,0,1,1.518.566,2.113,2.113,0,0,1,.569,1.52Z" transform="translate(-3274.333 -21720.797)"/>
    <path id="Caminho_176" data-name="Caminho 176" class="cls-5" d="M4132.313,22182.457l.84,5.555h3.822l-4.039-24.121h-5.014l-4.092,24.121h3.794l.895-5.555Zm-.542-3.551h-2.71l1.355-9.486Z" transform="translate(-3938.031 -21720.887)"/>
    <path id="Caminho_177" data-name="Caminho 177" class="cls-5" d="M5035.57,22163.8v24.123h3.632v-9.08h2.439l2.222,9.08h3.9l-2.683-10.545a5.556,5.556,0,0,0,1.952-4.309v-3.523a6.033,6.033,0,0,0-1.247-4.066,5.57,5.57,0,0,0-4.472-1.68h-5.746Zm7.915,9.352a1.987,1.987,0,0,1-.6,1.463,2.069,2.069,0,0,1-1.49.623h-2.2v-7.723h2.2a1.851,1.851,0,0,1,2.087,2.086Z" transform="translate(-4833.563 -21720.797)"/>
    <path id="Caminho_178" data-name="Caminho 178" class="cls-5" d="M5901.142,22163.8h-3.632v24.125h3.632Z" transform="translate(-5680.18 -21720.797)"/>
    <path id="Caminho_179" data-name="Caminho 179" class="cls-5" d="M6284.783,22163.24a7.4,7.4,0,0,0-.569-1.139,11.764,11.764,0,0,0-2.087-2.656,16.285,16.285,0,0,0-1.653-1.49,11.483,11.483,0,0,1-1.627-1.545,5.3,5.3,0,0,1-1.436-3.361,3.2,3.2,0,0,1,.434-1.762,1.625,1.625,0,0,1,1.518-.895,1.734,1.734,0,0,1,1.437.6,4.164,4.164,0,0,1,.867,2.3l3.5-.652a7.6,7.6,0,0,0-.813-2.789,5.015,5.015,0,0,0-1.735-1.871,6.215,6.215,0,0,0-3.334-.867,5.476,5.476,0,0,0-3.388,1.029,5.836,5.836,0,0,0-2.223,4.986,7.272,7.272,0,0,0,.813,3.389,14.374,14.374,0,0,0,2.548,3.145c1.437,1.354,2.521,2.357,3.252,3.064a4.448,4.448,0,0,1,1.355,2.98,2.974,2.974,0,0,1-.353,1.6,2.269,2.269,0,0,1-1.924,1.166,1.8,1.8,0,0,1-1.491-.678,5.09,5.09,0,0,1-1.111-3.062l-3.469.27a10.2,10.2,0,0,0,.785,3.418,5.857,5.857,0,0,0,1.871,2.355,5.74,5.74,0,0,0,3.551,1.059,6.417,6.417,0,0,0,2.005-.271,4.672,4.672,0,0,0,2.521-1.709,6.787,6.787,0,0,0,1.3-4.309,6.146,6.146,0,0,0-.542-2.3Z" transform="translate(-6049.281 -21704.406)"/>
  </g>
</svg>
